<svg width="36" height="36" viewBox="0 0 36 36" fill="none" xmlns="http://www.w3.org/2000/svg">
<rect width="36" height="36" rx="18" fill="#252525"/>
<path d="M15.916 17.922C15.3227 17.922 14.7427 18.0979 14.2493 18.4276C13.756 18.7572 13.3714 19.2258 13.1444 19.7739C12.9173 20.3221 12.8579 20.9253 12.9737 21.5073C13.0894 22.0892 13.3751 22.6238 13.7947 23.0433C14.2143 23.4629 14.7488 23.7486 15.3307 23.8644C15.9127 23.9801 16.5159 23.9207 17.0641 23.6936C17.6122 23.4666 18.0808 23.0821 18.4104 22.5887C18.7401 22.0954 18.916 21.5153 18.916 20.922V11.922C18.916 12.9166 19.3111 13.8704 20.0144 14.5736C20.7176 15.2769 21.6715 15.672 22.666 15.672" stroke="#FCFEFF" stroke-width="1.125" stroke-linecap="round" stroke-linejoin="round"/>
</svg>
