<?xml version="1.0" encoding="UTF-8"?>
<svg id="Layer_1" data-name="Layer 1" xmlns="http://www.w3.org/2000/svg" viewBox="0 0 290 69.58">
  <defs>
    <style>
      .cls-1 {
        fill: #575150;
      }

      .cls-2 {
        fill: #c0cf64;
      }

      .cls-3 {
        fill: #695f5c;
      }

      .cls-4 {
        fill: #becf60;
      }

      .cls-5 {
        fill: #bfcd5f;
      }

      .cls-6 {
        fill: #bdcc5b;
      }

      .cls-7 {
        fill: #8eb554;
      }

      .cls-8 {
        fill: #c0ce5d;
      }
    </style>
  </defs>
  <g>
    <path class="cls-1" d="m80.83,15.05c0,2.34.11,3.69.32,4.05.11.22.62.37,1.53.46.4.05.61.31.61.76,0,.54-.19.81-.58.81-.04,0-.48-.02-1.32-.05-.84-.02-1.44-.03-1.77-.03-.39,0-1,0-1.85.03l-.45.03h-.18l-.18.03h-.4c-.39,0-.58-.27-.58-.81,0-.45.19-.7.55-.76.95-.11,1.46-.27,1.53-.49.11-.31.16-1.61.16-3.91v-7.39c0-2.27-.05-3.55-.16-3.86-.07-.16-.6-.31-1.58-.46-.33-.05-.5-.31-.5-.76,0-.54.2-.81.61-.81h.4l.19.03.63.03c.81.02,1.41.03,1.8.03h1.21l.53-.03h1.93c2.5-.04,4.31-.05,5.44-.05.49,0,.74.24.74.73,0,.23-.04.76-.11,1.56-.05.85-.11,1.46-.16,1.83-.04.4-.3.59-.79.59-.46,0-.72-.19-.79-.57-.02-.09-.04-.21-.05-.35l-.05-.43c-.05-.34-.11-.58-.16-.73-.07-.34-.32-.57-.74-.67-.58-.16-1.52-.24-2.83-.24-1.65,0-2.55.05-2.69.16-.11.13-.17.37-.18.73-.04,1.21-.05,3.2-.05,5.99.05,0,.33,0,.84-.03.49,0,.93,0,1.32-.03,1.43-.07,2.29-.17,2.59-.3.18-.07.33-.57.45-1.48.09-.38.36-.57.82-.57.49,0,.74.22.74.65l-.03,1.21v1.43c0,.31,0,.81.03,1.51v.38l.03.32v.35c0,.49-.24.73-.71.73s-.73-.22-.82-.65c-.07-.43-.12-.74-.16-.92-.07-.34-.2-.54-.4-.59-.41-.13-1.28-.22-2.61-.3-.33-.02-.73-.03-1.19-.03h-.9v2.86Z"/>
    <path class="cls-1" d="m94.66,15.97v1.05c0,.36,0,.67.03.94.04.61.09,1.01.16,1.19.09.2.63.34,1.64.43.4.04.61.3.61.78s-.19.76-.58.76h-.45l-.34-.03-.42-.03c-.77-.02-1.33-.03-1.66-.03-.39,0-.86,0-1.43.03l-.29.03-.24.03h-.29c-.37,0-.55-.25-.55-.76s.16-.75.48-.78c.6-.09.94-.24,1.03-.46.09-.29.13-1.04.13-2.27v-2.89c0-1.85-.11-2.92-.32-3.21-.19-.22-.51-.39-.95-.51-.3-.09-.45-.37-.45-.84,0-.38.15-.61.45-.7.3-.07.6-.14.9-.22l.4-.11.37-.11c.67-.18,1.05-.27,1.14-.27.39,0,.6.22.63.65l.08.97c.09-.11.47-.39,1.14-.84.65-.45,1.27-.67,1.85-.67,1.04,0,1.56.39,1.56,1.16,0,.36-.11.72-.32,1.08-.28.45-.61.67-.98.67-.16,0-.32-.03-.48-.08l-.4-.13c-.28-.11-.52-.16-.71-.16s-.41.05-.63.16c-.33.16-.66.4-.98.73-.07,2.1-.11,3.58-.11,4.42Z"/>
    <path class="cls-1" d="m102.72,14c-.02.13-.03.33-.03.62,0,1.51.41,2.66,1.24,3.45.76.74,1.78,1.11,3.06,1.11.81,0,1.69-.25,2.64-.76.21-.13.38-.19.5-.19.16,0,.32.08.48.24.21.25.32.47.32.65,0,.22-.19.47-.58.76-1.44,1.04-2.88,1.56-4.3,1.56-1.64,0-2.98-.6-4.04-1.81-1.07-1.2-1.61-2.75-1.61-4.64,0-2.05.59-3.72,1.77-5.02,1.14-1.29,2.59-1.94,4.33-1.94,1.44,0,2.59.5,3.43,1.51.72.86,1.08,1.89,1.08,3.08,0,.43-.07.72-.21.86-.14.13-.45.21-.92.24l-7.16.27Zm5.73-1.97c-.05-1.49-.87-2.24-2.46-2.24-.85,0-1.55.31-2.11.92-.51.56-.82,1.12-.92,1.7l5.49-.38Z"/>
    <path class="cls-1" d="m115.29,14c-.02.13-.03.33-.03.62,0,1.51.41,2.66,1.24,3.45.76.74,1.78,1.11,3.06,1.11.81,0,1.69-.25,2.64-.76.21-.13.38-.19.5-.19.16,0,.32.08.48.24.21.25.32.47.32.65,0,.22-.19.47-.58.76-1.44,1.04-2.88,1.56-4.3,1.56-1.64,0-2.98-.6-4.04-1.81-1.07-1.2-1.61-2.75-1.61-4.64,0-2.05.59-3.72,1.77-5.02,1.14-1.29,2.59-1.94,4.33-1.94,1.44,0,2.59.5,3.43,1.51.72.86,1.08,1.89,1.08,3.08,0,.43-.07.72-.21.86-.14.13-.45.21-.92.24l-7.16.27Zm5.73-1.97c-.05-1.49-.87-2.24-2.46-2.24-.85,0-1.55.31-2.11.92-.51.56-.82,1.12-.92,1.7l5.49-.38Z"/>
    <path class="cls-1" d="m134.59,20.07c-1.21.9-2.47,1.35-3.78,1.35-1.62,0-2.93-.62-3.93-1.86-.95-1.17-1.43-2.63-1.43-4.37,0-2.07.67-3.76,2.01-5.07,1.3-1.29,2.94-1.94,4.91-1.94.9,0,1.58.08,2.03.24-.04-3.36-.17-5.23-.4-5.61-.11-.18-.39-.33-.84-.46-.39-.11-.58-.38-.58-.81,0-.47.16-.75.48-.84l.9-.19.92-.24c.12-.02.26-.04.4-.08l.16-.05.16-.03c.23-.07.39-.11.48-.11.42,0,.63.3.63.89,0,.09,0,.33-.03.73v.27l-.03.35-.03.84c-.02.76-.03,1.56-.03,2.4-.02,1.1-.03,2.28-.03,3.53v6.56c0,.85.03,1.61.08,2.29.04.45.11.75.24.89.11.14.33.22.66.22h.71c.28,0,.46.15.53.46.03.23.05.4.05.51,0,.16-.06.3-.19.4-.05.07-.15.13-.29.16-.41.13-1,.31-1.8.57l-.29.11-.26.11c-.23.07-.42.11-.58.11-.37,0-.61-.23-.71-.7l-.13-.62Zm-.21-4.42c0-2.81-.09-4.38-.26-4.72-.04-.09-.18-.19-.42-.3-.65-.29-1.48-.43-2.48-.43-1.06,0-1.88.34-2.48,1.03-.63.74-.95,1.81-.95,3.21s.37,2.6,1.11,3.48c.72.85,1.64,1.27,2.75,1.27.95,0,1.87-.23,2.75-.7v-2.83Z"/>
    <path class="cls-1" d="m150.8,19.56c-1.16,1.26-2.67,1.89-4.52,1.89s-3.2-.64-4.33-1.92c-1.09-1.26-1.64-2.85-1.64-4.78s.58-3.5,1.74-4.78c1.18-1.29,2.67-1.94,4.46-1.94,1.88,0,3.37.63,4.46,1.89,1.04,1.2,1.56,2.78,1.56,4.72s-.58,3.65-1.74,4.91Zm-1.61-8.01c-.67-1.17-1.63-1.75-2.88-1.75-1.06,0-1.9.4-2.53,1.19-.65.81-.98,1.93-.98,3.37,0,1.66.39,2.97,1.16,3.94.7.9,1.6,1.35,2.69,1.35s1.88-.38,2.48-1.13c.62-.77.92-1.88.92-3.32s-.29-2.63-.87-3.64Z"/>
    <path class="cls-1" d="m158.59,15.97v1.05c0,.36,0,.67.03.94.04.61.09,1.01.16,1.19.09.2.55.34,1.37.43.4.04.61.3.61.78s-.19.76-.58.76c-.04,0-.4-.02-1.08-.05-.69-.02-1.2-.03-1.53-.03-.39,0-.86,0-1.43.03l-.29.03-.24.03h-.29c-.37,0-.55-.25-.55-.76s.16-.75.48-.78c.6-.11.94-.26,1.03-.46.09-.29.13-1.04.13-2.27v-2.94c0-1.82-.11-2.87-.32-3.16-.18-.18-.48-.36-.9-.54-.28-.11-.42-.38-.42-.81,0-.38.15-.61.45-.7.26-.05.54-.13.82-.22l.37-.11.34-.11c.67-.18,1.05-.27,1.14-.27.39,0,.6.22.63.65l.11.84c1.69-.93,3.18-1.4,4.46-1.4s2.17.52,2.51,1.56c1.81-.99,3.41-1.48,4.78-1.48,1.23,0,2.08.44,2.53,1.32.4.76.62,2.17.66,4.24.05,2.27.08,3.74.08,4.42v.57c.02.2.04.34.08.43.05.16.47.31,1.24.43.39.04.58.28.58.73,0,.54-.19.81-.58.81-.02,0-.37-.02-1.06-.05-.69-.02-1.21-.03-1.58-.03h-.63c-.16.02-.33.03-.53.03-.48.04-.73.05-.77.05-.37,0-.55-.24-.55-.73s.17-.74.5-.81c.58-.11.89-.25.92-.43.05-.22.09-.82.11-1.81v-2.4c0-1.94-.18-3.22-.53-3.83-.3-.5-.89-.76-1.77-.76-.44,0-.94.07-1.51.22-.69.16-1.22.36-1.61.59.11.68.17,1.54.18,2.56.05,2.27.08,3.74.08,4.42v.57c.02.2.04.34.08.43.07.16.49.31,1.27.43.37.07.55.32.55.76,0,.52-.19.78-.58.78-.02,0-.38-.02-1.08-.05-.67-.02-1.19-.03-1.56-.03-.33,0-.72,0-1.16.03-.48.04-.73.05-.77.05-.37,0-.55-.26-.55-.78,0-.41.16-.66.48-.76.56-.13.86-.27.9-.43.05-.23.1-.85.13-1.83,0-.38,0-.8.03-1.27v-1.11c0-1.96-.17-3.26-.5-3.88-.28-.52-.85-.78-1.72-.78-.41,0-.88.07-1.43.22-.67.16-1.21.37-1.61.62-.07,2.07-.11,3.69-.11,4.86Z"/>
    <path class="cls-1" d="m187.82,10.2h10.14v-2.43c0-2.27-.05-3.55-.16-3.86-.07-.2-.59-.35-1.56-.46-.35-.05-.53-.31-.53-.76,0-.54.21-.81.63-.81h.4l.16.03.63.03c.81.02,1.41.03,1.8.03h.77c.25-.02.55-.03.9-.03.77-.04,1.18-.05,1.21-.05.4,0,.61.26.61.78,0,.49-.2.75-.61.78-.86.05-1.35.2-1.45.43-.12.27-.19,1.29-.19,3.08v9.01c0,1.83.06,2.89.19,3.16.09.22.62.36,1.58.43.4.05.61.31.61.76,0,.54-.19.81-.58.81-.04,0-.47-.02-1.29-.05-.83-.02-1.41-.03-1.74-.03-.39,0-.99,0-1.82.03l-.45.03h-.18l-.19.03h-.4c-.39,0-.58-.27-.58-.81,0-.45.18-.7.55-.76.95-.11,1.46-.27,1.53-.49.11-.31.16-1.61.16-3.91v-3.21h-10.14v4.02c0,1.83.06,2.89.19,3.16.09.22.62.36,1.58.43.4.05.61.31.61.76,0,.54-.19.81-.58.81-.04,0-.47-.02-1.29-.05-.37,0-.69,0-.95-.03h-.79c-.39,0-.99,0-1.82.03l-.45.03h-.19l-.19.03h-.4c-.39,0-.58-.27-.58-.81,0-.45.19-.7.55-.76.95-.11,1.46-.27,1.53-.49.11-.31.16-1.61.16-3.91v-7.39c0-2.27-.05-3.55-.16-3.86-.07-.2-.59-.35-1.56-.46-.35-.05-.53-.31-.53-.76,0-.54.2-.81.61-.81h.4l.19.03.63.03c.81.02,1.41.03,1.8.03.33,0,.89,0,1.66-.03l.42-.03.34-.03h.45c.4,0,.61.26.61.78,0,.49-.2.75-.61.78-.86.05-1.35.2-1.45.43-.12.27-.19,1.29-.19,3.08v3.24Z"/>
    <path class="cls-1" d="m215.7,19.56c-1.16,1.26-2.67,1.89-4.52,1.89s-3.2-.64-4.33-1.92c-1.09-1.26-1.64-2.85-1.64-4.78s.58-3.5,1.74-4.78c1.18-1.29,2.67-1.94,4.46-1.94s3.37.63,4.46,1.89c1.04,1.2,1.56,2.78,1.56,4.72s-.58,3.65-1.74,4.91Zm-1.61-8.01c-.67-1.17-1.63-1.75-2.88-1.75-1.06,0-1.9.4-2.53,1.19-.65.81-.98,1.93-.98,3.37,0,1.66.39,2.97,1.16,3.94.7.9,1.6,1.35,2.69,1.35s1.88-.38,2.48-1.13c.62-.77.92-1.88.92-3.32s-.29-2.63-.87-3.64Z"/>
    <path class="cls-1" d="m224.23,21.34c-1.29,0-2.19-.45-2.72-1.35-.46-.81-.69-2.18-.69-4.1v-4.05c0-.63-.07-1.04-.21-1.24-.16-.23-.49-.38-1-.43-.39-.04-.58-.29-.58-.76,0-.5.19-.77.55-.81,1.04-.09,1.92-.21,2.64-.35l.16-.05c.11-.02.19-.03.26-.03.14,0,.29.06.45.19.16.14.24.33.24.57,0,.02-.02.19-.05.51,0,.18,0,.36-.03.54-.02.22-.04.44-.05.67-.09,1.4-.13,2.9-.13,4.51s.17,2.67.5,3.21c.32.54.98.81,1.98.81,1.14,0,2.15-.35,3.01-1.05.04-.95.05-1.77.05-2.45,0-1.11-.02-2.37-.05-3.78-.04-.68-.11-1.12-.21-1.3-.16-.23-.55-.39-1.19-.46-.41-.04-.61-.31-.61-.84,0-.45.19-.69.55-.73.97-.07,1.92-.19,2.85-.35.12-.04.24-.05.34-.05.18,0,.33.06.45.19.05.05.1.12.13.19.05.11.08.22.08.32,0,.04,0,.18-.03.43,0,.13,0,.26-.03.4-.02.18-.03.38-.03.59-.05,1.22-.08,2.81-.08,4.78s.04,3.1.11,3.37c.07.36.31.54.71.54h.32l.26-.03c.12,0,.23.03.32.08.12.09.2.22.24.38.04.23.05.4.05.51,0,.22-.12.39-.37.51-.23.09-.79.3-1.69.62l-.26.11-.29.08c-.26.09-.47.13-.61.13-.35,0-.59-.23-.71-.7l-.16-.84c-1.48.99-2.97,1.48-4.49,1.48Z"/>
    <path class="cls-1" d="m240.5,13.89c1.87.81,2.8,1.96,2.8,3.45,0,1.19-.45,2.17-1.35,2.94-.88.76-1.99,1.13-3.33,1.13s-2.46-.23-3.27-.67c-.28-.2-.45-.48-.5-.84-.04-.32-.07-.71-.11-1.16-.02-.38-.03-.64-.03-.78,0-.38.18-.59.53-.65.19-.04.33-.05.42-.05.3,0,.5.16.61.49.21.74.56,1.25,1.06,1.54.42.23,1.03.35,1.82.35,1.36,0,2.03-.53,2.03-1.59,0-.76-.65-1.43-1.95-2.02l-1.58-.73c-1.66-.76-2.48-1.92-2.48-3.48,0-1.1.47-2,1.4-2.7.93-.72,2.16-1.08,3.67-1.08.84,0,1.57.13,2.17.38.33.14.5.4.5.78,0,.22-.03.56-.08,1.03-.04.43-.07.73-.11.89-.09.4-.35.59-.79.59s-.7-.19-.74-.57c-.05-.45-.2-.76-.45-.94-.32-.25-.84-.38-1.56-.38-1.23,0-1.85.49-1.85,1.46,0,.81.52,1.45,1.56,1.92l1.61.7Z"/>
    <path class="cls-1" d="m247.71,14c-.02.13-.03.33-.03.62,0,1.51.41,2.66,1.24,3.45.76.74,1.78,1.11,3.06,1.11.81,0,1.69-.25,2.64-.76.21-.13.38-.19.5-.19.16,0,.32.08.47.24.21.25.32.47.32.65,0,.22-.19.47-.58.76-1.44,1.04-2.88,1.56-4.3,1.56-1.64,0-2.98-.6-4.04-1.81-1.07-1.2-1.61-2.75-1.61-4.64,0-2.05.59-3.72,1.77-5.02,1.14-1.29,2.59-1.94,4.33-1.94,1.44,0,2.59.5,3.43,1.51.72.86,1.08,1.89,1.08,3.08,0,.43-.07.72-.21.86-.14.13-.45.21-.92.24l-7.16.27Zm5.73-1.97c-.05-1.49-.87-2.24-2.46-2.24-.84,0-1.55.31-2.11.92-.51.56-.82,1.12-.92,1.7l5.49-.38Z"/>
  </g>
  <g>
    <path class="cls-1" d="m79.64,40.01c0,1.47.1,2.35.31,2.62.21.23.84.4,1.89.51.36.05.54.33.54.84s-.19.73-.57.73h-.36l-.28-.03c-.12,0-.23,0-.34-.03-.71-.02-1.49-.03-2.35-.03-.38,0-.98,0-1.81.03l-.44.03h-.18l-.18.03h-.39c-.38,0-.57-.27-.57-.81,0-.45.18-.7.54-.76.93-.11,1.43-.27,1.5-.49.1-.31.16-1.65.16-4.02v-6.93c0-2.5-.05-3.9-.16-4.21-.07-.16-.59-.31-1.55-.46-.33-.05-.49-.31-.49-.76,0-.54.2-.81.59-.81h.41l.16.03.65.03c.36,0,.68,0,.96.03h1.81c.24-.02.53-.03.85-.03.72-.04,1.17-.05,1.34-.05,1.97,0,3.46.33,4.47,1,1.38.88,2.07,2.37,2.07,4.45,0,2.25-1.11,3.86-3.34,4.83.57,1.04,1.28,2.25,2.15,3.62.91,1.44,1.6,2.41,2.07,2.91.31.34.58.56.8.65.26.11.61.18,1.06.22.34.05.52.31.52.78,0,.52-.23.78-.7.78-.09,0-.27,0-.54-.03h-1.42c-.26.02-.41.03-.47.03-.35,0-.6-.06-.78-.19-.21-.13-.45-.35-.72-.67-.59-.74-1.41-1.99-2.46-3.75-.31-.54-.72-1.25-1.24-2.13l-.26-.49-.28-.46c-.17-.32-.29-.53-.36-.62-.29.02-.74.03-1.34.03-.47,0-.89-.02-1.27-.05v3.64Zm-.03-5.29c.09,0,.28,0,.57.03h.65c1.6,0,2.77-.29,3.49-.86.71-.56,1.06-1.47,1.06-2.75,0-2.66-1.39-3.99-4.16-3.99-.79,0-1.27.06-1.42.19-.12.11-.18.91-.18,2.4v4.99Z"/>
    <path class="cls-1" d="m94.79,37.58c-.02.13-.03.33-.03.62,0,1.51.4,2.66,1.22,3.45.74.74,1.74,1.11,3,1.11.79,0,1.65-.25,2.59-.76.21-.13.37-.19.49-.19.16,0,.31.08.47.24.21.25.31.47.31.65,0,.22-.19.47-.57.76-1.41,1.04-2.82,1.56-4.21,1.56-1.6,0-2.92-.6-3.96-1.81-1.05-1.2-1.58-2.75-1.58-4.64,0-2.05.58-3.72,1.73-5.02,1.12-1.29,2.53-1.94,4.24-1.94,1.41,0,2.53.5,3.36,1.51.71.86,1.06,1.89,1.06,3.08,0,.43-.07.72-.21.86-.14.13-.44.21-.91.24l-7.01.27Zm5.61-1.97c-.05-1.49-.85-2.24-2.4-2.24-.83,0-1.52.31-2.07.92-.5.56-.8,1.12-.9,1.7l5.38-.38Z"/>
    <path class="cls-1" d="m113.64,42.03c.1-.05.19-.08.26-.08.16,0,.31.09.47.27.17.25.26.44.26.57,0,.2-.09.38-.26.54-1.5,1.13-2.88,1.7-4.14,1.7-1.65,0-2.99-.6-4.01-1.81-.98-1.15-1.47-2.63-1.47-4.45,0-2,.59-3.68,1.78-5.04,1.21-1.4,2.73-2.1,4.58-2.1.91,0,1.64.12,2.17.35.55.22.83.54.83.97,0,.27-.09.58-.26.94-.21.4-.5.59-.88.59-.16,0-.35-.04-.59-.13l-.31-.11-.31-.08c-.6-.2-1.18-.3-1.73-.3-.88,0-1.58.29-2.09.86-.64.7-.96,1.75-.96,3.16,0,1.53.4,2.75,1.19,3.67.72.85,1.64,1.27,2.74,1.27.71,0,1.55-.23,2.53-.7l.21-.08Z"/>
    <path class="cls-1" d="m125.87,43.14c-1.14,1.26-2.61,1.89-4.42,1.89s-3.14-.64-4.24-1.92c-1.07-1.26-1.6-2.85-1.6-4.78s.57-3.5,1.71-4.78c1.15-1.29,2.61-1.94,4.37-1.94,1.84,0,3.3.63,4.37,1.89,1.02,1.2,1.53,2.78,1.53,4.72s-.57,3.65-1.71,4.91Zm-1.58-8.01c-.66-1.17-1.59-1.75-2.82-1.75-1.03,0-1.86.4-2.48,1.19-.64.81-.96,1.93-.96,3.37,0,1.66.38,2.97,1.14,3.94.69.9,1.57,1.35,2.64,1.35s1.84-.38,2.43-1.13c.6-.77.9-1.88.9-3.32s-.28-2.63-.85-3.64Z"/>
    <path class="cls-1" d="m137.43,35.64c.31-.79.47-1.3.47-1.54,0-.07-.02-.14-.05-.22-.02-.07-.05-.13-.1-.16-.19-.11-.51-.19-.96-.24-.36-.05-.54-.29-.54-.7,0-.54.19-.81.57-.81h.41l.26.03.28.03c.53.02.96.03,1.27.03h.67c.17-.02.34-.03.52-.03.4-.04.61-.05.65-.05.41,0,.62.25.62.76,0,.45-.16.7-.49.76-.28.04-.48.14-.62.32-.16.18-.37.58-.65,1.21-1.64,3.81-2.92,6.9-3.85,9.25-.17.43-.48.65-.93.65-.5,0-.82-.23-.96-.67-.09-.22-.2-.49-.34-.84l-.18-.49-.21-.46c-.33-.83-.6-1.53-.83-2.1-.71-1.74-1.32-3.23-1.84-4.45l-.26-.59c-.1-.25-.18-.44-.23-.57-.17-.36-.3-.61-.39-.76-.19-.25-.47-.41-.85-.49-.34-.05-.52-.31-.52-.76,0-.52.18-.78.54-.78h.34l.23.03.26.03c.52.02,1.04.03,1.58.03h.8c.22-.02.46-.03.7-.03.57-.04.86-.05.88-.05.38,0,.57.26.57.78,0,.43-.18.67-.54.73-.26.02-.49.05-.7.11-.33.07-.49.23-.49.49,0,.31.15.83.44,1.56.59,1.47,1.1,2.78,1.55,3.91.17.43.35.87.54,1.32l.23.59-.08-.13c.28-.76,1.02-2.65,2.22-5.69Z"/>
    <path class="cls-1" d="m144.59,37.58c-.02.13-.03.33-.03.62,0,1.51.4,2.66,1.22,3.45.74.74,1.74,1.11,3,1.11.79,0,1.65-.25,2.59-.76.21-.13.37-.19.49-.19.16,0,.31.08.47.24.21.25.31.47.31.65,0,.22-.19.47-.57.76-1.41,1.04-2.82,1.56-4.21,1.56-1.6,0-2.92-.6-3.96-1.81-1.05-1.2-1.58-2.75-1.58-4.64,0-2.05.58-3.72,1.73-5.02,1.12-1.29,2.53-1.94,4.24-1.94,1.41,0,2.53.5,3.36,1.51.71.86,1.06,1.89,1.06,3.08,0,.43-.07.72-.21.86-.14.13-.44.21-.91.24l-7.01.27Zm5.61-1.97c-.05-1.49-.85-2.24-2.4-2.24-.83,0-1.52.31-2.07.92-.5.56-.8,1.12-.9,1.7l5.38-.38Z"/>
    <path class="cls-1" d="m158.4,39.55v1.05c0,.36,0,.67.03.94.03.61.09,1.01.16,1.19.09.2.62.34,1.6.43.4.04.59.3.59.78s-.19.76-.57.76h-.44l-.34-.03-.41-.03c-.76-.02-1.3-.03-1.63-.03-.38,0-.84,0-1.4.03l-.28.03-.23.03h-.28c-.36,0-.54-.25-.54-.76s.16-.75.47-.78c.59-.09.92-.24,1.01-.46.09-.29.13-1.04.13-2.27v-2.89c0-1.85-.1-2.92-.31-3.21-.19-.22-.5-.39-.93-.51-.29-.09-.44-.37-.44-.84,0-.38.15-.61.44-.7.29-.07.59-.14.88-.22l.39-.11.36-.11c.65-.18,1.03-.27,1.11-.27.38,0,.59.22.62.65l.08.97c.09-.11.46-.39,1.11-.84.64-.45,1.24-.67,1.81-.67,1.02,0,1.53.39,1.53,1.16,0,.36-.1.72-.31,1.08-.28.45-.59.67-.96.67-.16,0-.31-.03-.47-.08l-.39-.13c-.28-.11-.51-.16-.7-.16s-.4.05-.62.16c-.33.16-.65.4-.96.73-.07,2.1-.1,3.58-.1,4.42Z"/>
    <path class="cls-1" d="m166.18,35.91c-.47-1.06-.77-1.69-.9-1.89-.22-.29-.51-.47-.85-.54-.34-.05-.52-.31-.52-.76,0-.5.18-.76.54-.76h.34l.21.03.23.03c.47.02.97.03,1.5.03h.83c.22-.02.47-.03.75-.03.6-.04.91-.05.93-.05.4,0,.59.26.59.78,0,.41-.18.65-.54.7-.29.02-.53.05-.72.11-.31.05-.47.22-.47.49,0,.23.16.77.47,1.62.5,1.33,1.01,2.63,1.53,3.91.07.2.16.43.28.7l.13.32.13.32c.17.45.22.58.16.38-.07.2,0,.05.18-.43l.1-.32.13-.35c.12-.29.22-.53.28-.73.5-1.33.98-2.61,1.45-3.83.28-.76.41-1.28.41-1.56,0-.16-.06-.29-.18-.38-.19-.11-.51-.19-.96-.24-.36-.07-.54-.3-.54-.67,0-.54.19-.81.57-.81.1,0,.41.02.93.05l.62.03h1.29c.17-.02.34-.03.52-.03.4-.04.61-.05.65-.05.43,0,.65.24.65.73,0,.45-.16.7-.49.76-.43.07-.84.59-1.24,1.56-.29.72-.66,1.6-1.09,2.64l-.54,1.35-.54,1.35c-.86,2.09-1.47,3.54-1.81,4.37-1.4,3.31-2.24,5.21-2.53,5.69-.36.61-.78.92-1.24.92-.31,0-.61-.1-.9-.3-.33-.23-.5-.52-.52-.86,0-.29.17-.63.52-1.02,1.15-1.21,2.17-2.84,3.05-4.91-.72-1.94-1.84-4.72-3.36-8.34Z"/>
    <path class="cls-1" d="m188.88,41.03c1.33,1.48,3.1,2.21,5.33,2.21,1.76,0,3.02-.4,3.78-1.19.47-.5.85-1.2,1.16-2.1.14-.4.39-.59.75-.59.55,0,.83.23.83.67,0,.2-.02.41-.05.65-.28,1.26-.53,2.24-.78,2.94-.09.31-.34.53-.78.67-1.69.56-3.51.84-5.46.84-2.79,0-5.08-.84-6.85-2.51-1.86-1.76-2.79-4.13-2.79-7.1,0-3.2.96-5.75,2.9-7.63,1.95-1.91,4.61-2.86,7.99-2.86.91,0,1.84.08,2.77.24.72.13,1.34.27,1.86.43.53.16.8.45.8.86,0,.32-.03.86-.1,1.62-.07.68-.13,1.23-.18,1.65-.09.43-.34.65-.75.65-.5,0-.77-.22-.8-.65,0-.07,0-.16-.03-.27l-.05-.35c-.03-.29-.07-.51-.1-.67-.09-.36-.34-.65-.78-.86-.9-.47-2.16-.7-3.8-.7-2.26,0-3.97.76-5.15,2.29-1.12,1.44-1.68,3.41-1.68,5.91s.65,4.38,1.97,5.85Z"/>
    <path class="cls-1" d="m204.5,37.58c-.02.13-.03.33-.03.62,0,1.51.41,2.66,1.22,3.45.74.74,1.74,1.11,3,1.11.79,0,1.65-.25,2.59-.76.21-.13.37-.19.49-.19.15,0,.31.08.47.24.21.25.31.47.31.65,0,.22-.19.47-.57.76-1.41,1.04-2.82,1.56-4.22,1.56-1.6,0-2.92-.6-3.96-1.81-1.05-1.2-1.58-2.75-1.58-4.64,0-2.05.58-3.72,1.73-5.02,1.12-1.29,2.53-1.94,4.24-1.94,1.41,0,2.53.5,3.36,1.51.71.86,1.06,1.89,1.06,3.08,0,.43-.07.72-.21.86-.14.13-.44.21-.9.24l-7.01.27Zm5.61-1.97c-.05-1.49-.85-2.24-2.4-2.24-.83,0-1.52.31-2.07.92-.5.56-.8,1.12-.91,1.7l5.38-.38Z"/>
    <path class="cls-1" d="m218.31,39.55v1.05c0,.36,0,.67.03.94.03.61.09,1.01.15,1.19.09.2.53.34,1.34.43.4.04.59.3.59.78s-.19.76-.57.76c-.03,0-.39-.02-1.06-.05-.67-.02-1.17-.03-1.5-.03-.38,0-.84,0-1.4.03l-.28.03-.23.03h-.28c-.36,0-.54-.25-.54-.76s.15-.75.47-.78c.59-.09.92-.24,1.01-.46.09-.29.13-1.04.13-2.27v-2.94c0-1.82-.1-2.87-.31-3.16-.19-.22-.48-.4-.88-.54-.28-.11-.41-.38-.41-.81,0-.38.15-.61.44-.7.26-.05.53-.13.8-.22l.36-.11.34-.11c.65-.18,1.03-.27,1.11-.27.38,0,.59.22.62.65l.1.84c1.65-.93,3.12-1.4,4.4-1.4,1.21,0,2.03.44,2.48,1.32.4.77.61,2.21.65,4.32.02.5.03,1.02.03,1.56l.03.67v.59c.02.86.03,1.38.03,1.56v.3l.03.3c0,.22.02.36.05.43.05.16.46.31,1.22.43.38.04.57.28.57.73,0,.54-.19.81-.57.81-.02,0-.37-.02-1.06-.05-.66-.02-1.16-.03-1.53-.03s-.73,0-1.16.03c-.45.04-.7.05-.75.05-.35,0-.52-.24-.52-.73,0-.45.16-.72.47-.81.53-.09.83-.24.88-.46.05-.22.09-.81.13-1.78,0-.38,0-.8.03-1.27v-1.08c0-1.96-.17-3.26-.52-3.91-.28-.54-.84-.81-1.71-.81-.41,0-.9.07-1.45.22-.69.16-1.23.37-1.63.62-.07,2.07-.1,3.69-.1,4.86Z"/>
    <path class="cls-1" d="m229.89,34.13c-.41,0-.62-.24-.62-.73,0-.34.13-.57.39-.67.45-.18.78-.34,1.01-.49.07-.05.13-.1.18-.13.03-.04.07-.07.1-.11.17-.16.46-.86.85-2.1.1-.36.39-.54.85-.54s.67.22.67.65v2.21h2.66c.45,0,.67.31.67.94s-.22.97-.67.97h-2.69c-.02.9-.03,2.06-.05,3.48v2.27c0,1.26.12,2.1.36,2.51.15.29.47.43.93.43.53,0,1.05-.13,1.55-.38.1-.05.22-.08.34-.08.19,0,.35.12.49.35l.13.19c.05.13.08.23.08.32,0,.18-.1.37-.31.57-1.05.77-2.04,1.16-2.97,1.16-1.1,0-1.87-.36-2.3-1.08-.31-.54-.47-1.65-.47-3.35,0-.47.02-1.63.05-3.48v-1.03c0-.38,0-.68.03-.92v-.97h-1.27Z"/>
    <path class="cls-1" d="m240.26,37.58c-.02.13-.03.33-.03.62,0,1.51.41,2.66,1.22,3.45.74.74,1.74,1.11,3,1.11.79,0,1.65-.25,2.59-.76.21-.13.37-.19.49-.19.15,0,.31.08.47.24.21.25.31.47.31.65,0,.22-.19.47-.57.76-1.41,1.04-2.82,1.56-4.22,1.56-1.6,0-2.92-.6-3.96-1.81-1.05-1.2-1.58-2.75-1.58-4.64,0-2.05.58-3.72,1.73-5.02,1.12-1.29,2.53-1.94,4.24-1.94,1.41,0,2.53.5,3.36,1.51.71.86,1.06,1.89,1.06,3.08,0,.43-.07.72-.21.86-.14.13-.44.21-.9.24l-7.01.27Zm5.61-1.97c-.05-1.49-.85-2.24-2.4-2.24-.83,0-1.52.31-2.07.92-.5.56-.8,1.12-.91,1.7l5.38-.38Z"/>
    <path class="cls-1" d="m254.07,39.55v1.05c0,.36,0,.67.03.94.03.61.09,1.01.15,1.19.09.2.62.34,1.6.43.4.04.59.3.59.78s-.19.76-.57.76h-.44l-.34-.03-.41-.03c-.76-.02-1.3-.03-1.63-.03-.38,0-.84,0-1.4.03l-.28.03-.23.03h-.28c-.36,0-.54-.25-.54-.76s.15-.75.47-.78c.59-.09.92-.24,1.01-.46.09-.29.13-1.04.13-2.27v-2.89c0-1.85-.1-2.92-.31-3.21-.19-.22-.5-.39-.93-.51-.29-.09-.44-.37-.44-.84,0-.38.15-.61.44-.7.29-.07.59-.14.88-.22l.39-.11.36-.11c.66-.18,1.03-.27,1.11-.27.38,0,.59.22.62.65l.08.97c.09-.11.46-.39,1.11-.84.64-.45,1.24-.67,1.81-.67,1.02,0,1.53.39,1.53,1.16,0,.36-.1.72-.31,1.08-.28.45-.6.67-.96.67-.15,0-.31-.03-.47-.08l-.39-.13c-.28-.11-.51-.16-.7-.16s-.4.05-.62.16c-.33.16-.65.4-.96.73-.07,2.1-.1,3.58-.1,4.42Z"/>
  </g>
  <g>
    <g>
      <path class="cls-3" d="m77.46,63.82h-.73l.88-6.49h.73l-.88,6.49Z"/>
      <path class="cls-3" d="m82.7,63.82h-.7c.06-.41.11-.84.17-1.28.06-.44.1-.76.13-.96.03-.2.05-.39.08-.59.02-.2.04-.34.05-.43s0-.16,0-.22c-.01-.23-.08-.39-.19-.49-.11-.1-.29-.15-.53-.15-.28,0-.54.09-.77.27-.23.18-.42.4-.56.66l-.42,3.2h-.69l.62-4.6h.66c-.04.29-.06.49-.07.62h.02c.41-.48.9-.72,1.46-.72.76,0,1.16.36,1.2,1.07,0,.07,0,.16,0,.27,0,.11-.03.27-.05.49-.03.22-.06.43-.09.64s-.08.54-.13.98c-.06.44-.11.85-.16,1.25Z"/>
      <path class="cls-3" d="m85.96,63.8c-.23.07-.49.1-.79.1-.46,0-.71-.27-.74-.82,0-.06,0-.13,0-.22s.02-.22.04-.41c.02-.19.05-.38.07-.56s.07-.49.12-.9.11-.8.16-1.17h-.6l.07-.45c.13,0,.24-.02.33-.07.09-.05.17-.1.22-.15.05-.05.11-.15.17-.3.06-.15.1-.26.13-.35.03-.09.07-.24.13-.46h.5l-.17,1.19h.97l-.07.6h-.98c-.04.3-.08.6-.12.9s-.08.54-.1.71c-.02.17-.05.35-.07.52-.02.17-.04.3-.05.39s-.02.17-.03.25c-.01.08-.02.15-.02.19,0,.05,0,.09,0,.13.01.17.05.28.12.33.07.05.18.07.33.07.18,0,.3-.01.37-.03,0,.11,0,.28,0,.51Z"/>
      <path class="cls-3" d="m88.72,63.9c-.56,0-.99-.15-1.28-.44-.29-.3-.46-.71-.49-1.23-.05-.86.15-1.59.61-2.2.45-.61,1.02-.91,1.71-.91.94,0,1.44.47,1.5,1.4.02.31-.02.68-.12,1.14h-2.96c-.02.17-.02.36-.01.55.04.76.41,1.15,1.11,1.15.53,0,.97-.17,1.32-.52l.3.38c-.14.15-.36.3-.68.45-.31.16-.65.23-1.01.23Zm1.36-2.78c.05-.15.06-.35.05-.58-.03-.57-.35-.86-.94-.86-.72,0-1.19.48-1.41,1.44h2.3Z"/>
      <path class="cls-3" d="m95.63,59.22l-.59,4.35c-.1.75-.36,1.32-.76,1.72-.4.4-.92.6-1.54.6s-1.1-.15-1.49-.45l.24-.54c.15.1.35.19.59.26.24.07.46.11.65.11.54,0,.94-.18,1.19-.54.25-.36.43-.91.53-1.67h-.02c-.19.28-.4.49-.62.63s-.49.21-.82.21c-.46,0-.81-.15-1.05-.45-.24-.3-.38-.7-.41-1.2-.03-.47.03-.94.17-1.41.14-.47.39-.87.74-1.21.35-.34.76-.51,1.24-.51.57,0,.95.26,1.16.77h.02l.12-.67h.64Zm-1.85.46c-.36,0-.66.14-.91.42-.25.28-.42.61-.51.99-.09.38-.12.77-.1,1.17.04.72.36,1.09.96,1.09.27,0,.52-.1.72-.29.21-.19.37-.43.47-.72.11-.29.18-.58.23-.87s.06-.57.05-.82c-.02-.28-.11-.51-.28-.69-.17-.18-.38-.28-.64-.28Z"/>
      <path class="cls-3" d="m99.06,59.89c-.36,0-.68.11-.97.33s-.46.57-.53,1.04l-.34,2.56h-.69l.62-4.6h.65l-.08.75h.02c.38-.56.86-.84,1.44-.85l-.1.77Z"/>
      <path class="cls-3" d="m99.4,62.25c-.03-.47.03-.94.17-1.41s.39-.87.74-1.21c.35-.34.76-.51,1.24-.51.57,0,.95.26,1.15.77h.02l.12-.67h.64c-.33,2.3-.48,3.58-.47,3.84l.05.76h-.68s0-.11-.03-.3c-.02-.19-.03-.35-.04-.46h-.03c-.37.56-.85.84-1.44.84-.46,0-.81-.15-1.05-.45-.24-.3-.38-.7-.41-1.2Zm2.23-2.56c-.37,0-.67.14-.92.42-.25.28-.41.61-.5.99-.09.38-.12.77-.1,1.18.04.72.36,1.09.95,1.09.27,0,.52-.1.72-.29.21-.19.37-.43.47-.72.11-.29.18-.58.23-.87.05-.29.06-.57.05-.82-.02-.28-.11-.51-.28-.69-.17-.18-.38-.28-.63-.28Z"/>
      <path class="cls-3" d="m106.22,63.8c-.23.07-.49.1-.79.1-.46,0-.71-.27-.74-.82,0-.06,0-.13,0-.22s.02-.22.04-.41c.02-.19.05-.38.07-.56s.07-.49.12-.9.11-.8.16-1.17h-.6l.07-.45c.13,0,.24-.02.33-.07.09-.05.17-.1.22-.15.05-.05.11-.15.17-.3.06-.15.1-.26.13-.35.03-.09.07-.24.13-.46h.5l-.17,1.19h.97l-.07.6h-.98c-.04.3-.08.6-.12.9s-.08.54-.1.71c-.02.17-.05.35-.07.52-.02.17-.04.3-.05.39s-.02.17-.03.25c-.01.08-.02.15-.02.19,0,.05,0,.09,0,.13.01.17.05.28.12.33.07.05.18.07.33.07.18,0,.3-.01.37-.03,0,.11,0,.28,0,.51Z"/>
      <path class="cls-3" d="m108.98,63.9c-.56,0-.99-.15-1.28-.44-.29-.3-.46-.71-.49-1.23-.05-.86.15-1.59.61-2.2.45-.61,1.02-.91,1.71-.91.94,0,1.44.47,1.5,1.4.02.31-.02.68-.12,1.14h-2.96c-.02.17-.02.36-.01.55.04.76.41,1.15,1.11,1.15.53,0,.97-.17,1.32-.52l.3.38c-.14.15-.36.3-.68.45-.31.16-.65.23-1.01.23Zm1.36-2.78c.05-.15.06-.35.05-.58-.03-.57-.35-.86-.94-.86-.72,0-1.19.48-1.41,1.44h2.3Z"/>
      <path class="cls-3" d="m111.8,62.24c-.03-.47.03-.94.17-1.4.14-.46.39-.86.74-1.2.35-.34.76-.51,1.24-.51.57,0,.95.26,1.16.77h.02c.03-.35.05-.62.08-.81l.27-2.02h.68l-.91,6.76h-.63l.08-.77h-.02c-.19.28-.4.49-.62.63-.22.14-.49.21-.82.21-.46,0-.81-.15-1.05-.46-.24-.31-.38-.71-.41-1.21Zm2.23-2.56c-.37,0-.67.14-.92.42-.24.28-.41.61-.5.99-.09.38-.12.77-.1,1.18.04.72.36,1.09.96,1.09.27,0,.52-.1.72-.29.21-.19.37-.43.47-.72.11-.29.18-.58.23-.88s.06-.57.05-.81c-.02-.28-.11-.51-.28-.7-.17-.19-.38-.28-.64-.28Z"/>
    </g>
    <g>
      <path class="cls-3" d="m122.48,60.79c.03.47-.03.94-.17,1.4s-.38.86-.73,1.2c-.34.34-.75.51-1.23.51-.56,0-.95-.26-1.15-.77h-.02l-.11.69h-.63l.87-6.75h.69l-.29,2.17-.12.73h.02c.38-.57.86-.85,1.42-.85.45,0,.8.15,1.04.46s.38.71.41,1.21Zm-2.21,2.56c.36,0,.66-.14.91-.42.24-.28.41-.61.5-.99.09-.38.12-.77.1-1.18-.04-.72-.36-1.09-.95-1.09-.27,0-.51.1-.72.29-.21.19-.36.43-.47.72-.11.29-.18.58-.23.88-.05.3-.06.57-.05.81.02.28.11.51.28.7.17.19.38.28.63.28Z"/>
      <path class="cls-3" d="m125.12,63.9c-.56,0-.98-.15-1.27-.44-.29-.3-.46-.71-.49-1.23-.05-.86.15-1.59.59-2.2.45-.61,1.01-.91,1.7-.91.94,0,1.43.47,1.49,1.4.02.31-.02.69-.11,1.14h-2.93c-.02.17-.02.36-.01.55.05.76.41,1.15,1.1,1.15.53,0,.96-.17,1.31-.52l.29.38c-.14.15-.36.3-.67.45-.31.16-.64.23-1,.23Zm1.34-2.78c.05-.15.06-.35.05-.58-.03-.57-.35-.86-.93-.86-.71,0-1.18.48-1.4,1.44h2.28Z"/>
      <path class="cls-3" d="m131.31,63.82h-.7c.05-.41.11-.84.17-1.28.06-.44.1-.76.13-.96.03-.2.05-.39.08-.59.02-.2.04-.34.05-.43,0-.09,0-.16,0-.22-.01-.23-.08-.39-.19-.49-.11-.1-.29-.15-.53-.15-.28,0-.53.09-.76.27s-.42.4-.56.66l-.41,3.2h-.69l.88-6.75h.69l-.3,2.23-.09.54h.02c.41-.48.89-.72,1.45-.72.75,0,1.15.36,1.2,1.07,0,.07,0,.17,0,.27,0,.11-.03.27-.05.49-.03.22-.05.43-.08.64-.03.21-.07.54-.13.98-.06.44-.11.86-.16,1.25Z"/>
      <path class="cls-3" d="m132.71,62.25c-.03-.47.03-.94.17-1.41s.38-.87.73-1.21c.34-.34.75-.51,1.23-.51.57,0,.95.26,1.14.77h.02l.11-.67h.63c-.32,2.3-.47,3.58-.45,3.84l.06.76h-.67s0-.11-.03-.3c-.02-.19-.03-.35-.04-.46h-.03c-.36.56-.84.84-1.42.84-.45,0-.8-.15-1.04-.45-.24-.3-.38-.7-.41-1.2Zm2.21-2.56c-.36,0-.66.14-.91.42s-.41.61-.5.99c-.09.38-.12.77-.1,1.18.04.73.36,1.09.94,1.09.27,0,.51-.1.72-.29.21-.19.36-.43.47-.72.11-.29.18-.58.23-.87.05-.29.06-.57.04-.82-.02-.28-.11-.51-.28-.69-.17-.18-.38-.27-.62-.27Z"/>
      <path class="cls-3" d="m140.75,59.22h.74l-2.14,4.6h-.66l-.94-4.6h.76l.63,3.63h.04l1.57-3.63Z"/>
      <path class="cls-3" d="m142.56,63.82h-.7l.6-4.6h.7l-.6,4.6Zm.08-5.92l.1-.84h.7l-.1.84h-.7Z"/>
      <path class="cls-3" d="m144.04,62.24c-.03-.51.03-.99.2-1.46s.43-.86.79-1.18c.37-.32.8-.47,1.29-.47s.91.15,1.19.45c.28.3.44.71.47,1.23.05.86-.14,1.59-.57,2.19-.43.6-1.01.9-1.72.9-.51,0-.9-.15-1.18-.45-.28-.3-.44-.7-.47-1.22Zm1.72,1.12c.36,0,.66-.14.9-.41.25-.28.41-.6.5-.98s.12-.77.1-1.17c-.05-.74-.38-1.12-1.02-1.12-.36,0-.66.14-.91.42-.24.28-.41.61-.49.99-.09.38-.12.77-.09,1.17.04.74.38,1.11,1.01,1.11Z"/>
      <path class="cls-3" d="m151.36,59.89c-.36,0-.68.11-.96.33-.28.22-.46.57-.52,1.04l-.33,2.56h-.69l.6-4.6h.64l-.08.75h.02c.38-.56.85-.84,1.42-.85l-.1.77Z"/>
      <path class="cls-3" d="m151.69,62.25c-.03-.47.03-.94.17-1.41s.38-.87.73-1.21c.34-.34.75-.51,1.23-.51.57,0,.95.26,1.14.77h.02l.11-.67h.63c-.32,2.3-.47,3.58-.45,3.84l.06.76h-.67s0-.11-.03-.3c-.02-.19-.03-.35-.04-.46h-.03c-.36.56-.84.84-1.42.84-.45,0-.8-.15-1.04-.45-.24-.3-.38-.7-.41-1.2Zm2.21-2.56c-.36,0-.66.14-.91.42s-.41.61-.5.99c-.09.38-.12.77-.1,1.18.04.73.36,1.09.94,1.09.27,0,.51-.1.72-.29.21-.19.36-.43.47-.72.11-.29.18-.58.23-.87.05-.29.06-.57.04-.82-.02-.28-.11-.51-.28-.69-.17-.18-.38-.27-.62-.27Z"/>
      <path class="cls-3" d="m157.32,63.82h-.7l.89-6.78h.7l-.89,6.78Z"/>
    </g>
    <g>
      <path class="cls-3" d="m164.86,63.9h-.72c.05-.41.11-.84.17-1.28.06-.44.1-.76.13-.96.03-.2.05-.39.08-.59.02-.2.04-.34.05-.43,0-.09,0-.16,0-.22-.01-.23-.08-.39-.2-.49-.12-.1-.3-.15-.55-.15-.29,0-.55.09-.79.27s-.43.4-.57.66l-.41,3.2h-.71l.89-6.75h.71l-.3,2.23-.1.54h.02c.42-.48.92-.72,1.49-.72.78,0,1.19.36,1.24,1.07,0,.07,0,.16,0,.27,0,.11-.03.27-.05.49-.03.22-.05.43-.08.64-.03.21-.07.54-.13.98s-.11.85-.16,1.25Z"/>
      <path class="cls-3" d="m167.98,63.98c-.57,0-1.01-.15-1.31-.44-.3-.3-.47-.71-.51-1.23-.06-.86.15-1.59.61-2.19.46-.61,1.04-.91,1.75-.91.97,0,1.48.47,1.54,1.4.02.31-.02.69-.11,1.14h-3.03c-.02.17-.02.36-.01.55.05.76.43,1.15,1.14,1.15.54,0,.99-.17,1.35-.52l.31.38c-.14.15-.37.3-.69.45-.32.16-.66.23-1.03.23Zm1.38-2.78c.05-.15.06-.35.05-.58-.04-.57-.36-.86-.96-.86-.74,0-1.21.48-1.44,1.44h2.36Z"/>
      <path class="cls-3" d="m170.7,62.33c-.03-.47.03-.94.17-1.41s.39-.87.75-1.21c.35-.34.78-.51,1.27-.51.59,0,.98.26,1.18.77h.02l.11-.67h.65c-.32,2.3-.47,3.58-.46,3.84l.06.76h-.69s-.01-.11-.03-.3c-.02-.19-.03-.35-.04-.46h-.03c-.37.56-.86.84-1.47.84-.47,0-.83-.15-1.08-.45-.25-.3-.39-.7-.42-1.2Zm2.27-2.56c-.37,0-.69.14-.94.42-.25.28-.42.61-.51.99-.09.38-.12.77-.1,1.18.05.73.37,1.09.98,1.09.28,0,.53-.1.74-.29.21-.19.37-.43.48-.72.11-.29.19-.58.23-.87.05-.29.06-.57.04-.82-.02-.28-.11-.51-.29-.69-.17-.18-.39-.27-.64-.27Z"/>
      <path class="cls-3" d="m176.38,63.9h-.72l.9-6.78h.72l-.9,6.78Z"/>
      <path class="cls-3" d="m183.91,63.9h-.72c.05-.41.11-.84.17-1.28.06-.44.1-.76.13-.96s.05-.39.08-.59c.02-.2.04-.34.05-.43,0-.09,0-.16,0-.22-.01-.23-.08-.39-.2-.49-.12-.1-.3-.15-.55-.15-.29,0-.55.09-.79.27s-.43.4-.57.66l-.41,3.2h-.71l.52-4h-1.74c-.04.3-.08.6-.12.9-.04.3-.08.54-.1.71-.02.17-.05.35-.07.52-.02.17-.04.3-.05.39-.01.09-.02.17-.03.25-.01.08-.01.15-.01.19,0,.05,0,.09,0,.13.01.17.05.28.12.33.07.05.19.07.34.07.18,0,.31-.01.38-.03,0,.11,0,.28,0,.51-.23.07-.5.1-.81.1-.47,0-.73-.27-.76-.82,0-.06,0-.13,0-.22s.02-.22.04-.41c.02-.19.05-.38.07-.56.02-.19.06-.49.12-.9.05-.41.11-.8.16-1.17h-.62l.06-.45c.13,0,.24-.03.34-.08.1-.05.17-.1.23-.15.06-.05.11-.15.17-.3.06-.15.1-.26.13-.35.03-.09.07-.24.13-.46h.51l-.16,1.19h1.74l.29-2.15h.71l-.3,2.23-.1.54h.02c.42-.48.92-.72,1.49-.72.78,0,1.19.36,1.24,1.07,0,.07,0,.16,0,.27,0,.11-.03.27-.05.49-.03.22-.05.43-.08.64-.03.21-.07.54-.13.98s-.11.85-.16,1.25Z"/>
    </g>
    <g>
      <path class="cls-3" d="m189.46,59.68c-.35,0-.63.14-.87.42-.23.28-.39.61-.47.98-.08.38-.11.76-.08,1.16.05.74.37,1.11.97,1.11.22,0,.43-.04.63-.12.2-.08.34-.15.42-.21.08-.06.14-.12.19-.17l.29.37c-.13.15-.34.3-.64.45-.3.16-.61.23-.95.23-.49,0-.87-.15-1.15-.45s-.43-.7-.46-1.22c-.06-.87.12-1.61.53-2.21.41-.6.96-.9,1.65-.9.56,0,1,.21,1.33.62l-.35.41s-.07-.08-.13-.13-.17-.12-.36-.21c-.18-.09-.37-.13-.56-.13Z"/>
      <path class="cls-3" d="m191.51,62.25c-.03-.47.02-.94.15-1.41.13-.47.36-.87.69-1.21.33-.34.72-.51,1.17-.51.54,0,.91.26,1.1.77h.02l.1-.67h.61c-.29,2.3-.42,3.58-.4,3.84l.06.76h-.64s-.01-.11-.03-.3c-.02-.19-.03-.35-.04-.46h-.03c-.34.56-.8.84-1.36.84-.43,0-.77-.15-1-.45-.23-.3-.37-.7-.4-1.2Zm2.09-2.56c-.35,0-.63.14-.86.42-.23.28-.38.61-.47.99-.08.38-.11.77-.08,1.18.05.72.35,1.09.91,1.09.26,0,.49-.1.68-.29.2-.19.34-.43.44-.72s.17-.58.21-.87.05-.56.04-.82c-.02-.28-.11-.51-.27-.69-.16-.18-.36-.27-.6-.27Z"/>
      <path class="cls-3" d="m198.67,59.89c-.34,0-.65.11-.92.33-.27.22-.43.57-.49,1.04l-.3,2.56h-.66l.54-4.6h.61l-.07.75h.02c.36-.56.81-.84,1.35-.85l-.09.77Z"/>
      <path class="cls-3" d="m200.74,63.9c-.53,0-.94-.15-1.22-.44-.28-.3-.44-.71-.48-1.23-.06-.86.13-1.59.55-2.19s.96-.91,1.61-.91c.89,0,1.37.47,1.43,1.4.02.31-.01.68-.1,1.14h-2.8c-.02.17-.02.36,0,.55.05.76.4,1.15,1.06,1.15.5,0,.92-.17,1.25-.52l.28.38c-.13.15-.34.3-.64.45-.3.16-.61.23-.95.23Zm1.26-2.78c.04-.15.06-.35.04-.58-.04-.57-.34-.86-.9-.86-.68,0-1.12.48-1.32,1.44h2.18Z"/>
    </g>
    <g>
      <path class="cls-3" d="m206.52,59.82l-.48,4h-.69l.49-4h-.59c0-.05.02-.13.03-.23.01-.1.02-.17.03-.22.22,0,.38-.05.47-.13.1-.08.16-.23.18-.45.14-1.15.72-1.73,1.74-1.73l.2.02-.07.6h-.12c-.31,0-.56.08-.73.24s-.28.47-.34.94l-.05.36h.95l-.07.6h-.95Z"/>
      <path class="cls-3" d="m207.87,62.24c-.03-.51.03-.99.18-1.46s.41-.86.77-1.18c.36-.32.78-.47,1.27-.47s.9.15,1.18.45c.28.3.44.71.47,1.23.06.86-.12,1.59-.55,2.19-.42.6-.99.9-1.69.9-.5,0-.89-.15-1.17-.45-.28-.3-.44-.7-.47-1.22Zm1.71,1.12c.35,0,.65-.14.89-.41.24-.28.4-.6.49-.98.08-.38.11-.77.09-1.17-.05-.74-.39-1.12-1.01-1.12-.36,0-.65.14-.89.42-.24.28-.4.61-.48.99-.08.38-.11.77-.08,1.17.05.74.38,1.11,1,1.11Z"/>
      <path class="cls-3" d="m215.13,59.89c-.35,0-.67.11-.95.33-.28.22-.45.57-.5,1.04l-.31,2.56h-.68l.55-4.6h.63l-.07.75h.02c.37-.56.83-.84,1.4-.85l-.09.77Z"/>
    </g>
    <g>
      <path class="cls-3" d="m219.8,59.68c-.36,0-.66.14-.9.42-.24.28-.4.61-.48.98-.08.38-.11.76-.08,1.16.05.74.39,1.11,1.01,1.11.23,0,.44-.04.65-.12.21-.08.35-.15.43-.21.08-.06.14-.12.19-.17l.3.37c-.13.15-.35.3-.66.45s-.63.23-.99.23c-.51,0-.9-.15-1.19-.45-.28-.3-.44-.7-.48-1.22-.06-.87.12-1.61.54-2.21.42-.6.99-.9,1.7-.9.58,0,1.04.21,1.38.62l-.36.41s-.08-.08-.13-.13c-.06-.05-.18-.12-.37-.21-.19-.09-.38-.13-.58-.13Z"/>
      <path class="cls-3" d="m225.31,63.82h-.69c.05-.41.1-.84.15-1.28.05-.44.09-.76.12-.96.03-.2.05-.39.07-.59.02-.2.04-.34.04-.43s0-.16,0-.22c-.02-.23-.08-.39-.19-.49-.11-.1-.29-.15-.53-.15-.27,0-.52.09-.75.27-.23.18-.41.4-.54.66l-.37,3.2h-.68l.8-6.75h.68l-.27,2.23-.09.54h.02c.4-.48.87-.72,1.43-.72.75,0,1.14.36,1.19,1.07,0,.07,0,.16,0,.27,0,.11-.02.27-.05.49-.02.22-.05.43-.08.64-.03.21-.07.54-.12.98-.05.44-.1.85-.14,1.25Z"/>
      <path class="cls-3" d="m227.45,63.82h-.69l.54-4.6h.69l-.54,4.6Zm.02-5.91l.09-.84h.69l-.09.84h-.69Z"/>
      <path class="cls-3" d="m229.67,63.82h-.69l.81-6.78h.69l-.81,6.78Z"/>
      <path class="cls-3" d="m231.18,62.24c-.03-.47.02-.94.15-1.4.13-.46.37-.86.71-1.2.34-.34.74-.51,1.21-.51.55,0,.94.26,1.15.77h.02c.02-.35.05-.62.07-.81l.24-2.01h.67l-.8,6.75h-.62l.07-.77h-.02c-.18.28-.38.49-.6.63-.21.14-.48.21-.8.21-.45,0-.79-.15-1.03-.46-.24-.31-.38-.71-.42-1.21Zm2.15-2.56c-.36,0-.65.14-.89.42-.24.28-.4.61-.48.99s-.11.77-.08,1.18c.05.72.37,1.09.95,1.09.27,0,.5-.1.7-.29.2-.19.35-.43.45-.72.1-.29.17-.58.22-.88s.05-.57.04-.81c-.02-.28-.11-.51-.28-.7-.17-.19-.38-.28-.63-.28Z"/>
      <path class="cls-3" d="m238.54,59.89c-.35,0-.67.11-.95.33-.28.22-.45.56-.5,1.04l-.3,2.56h-.68l.54-4.6h.63l-.07.75h.02c.37-.56.83-.84,1.4-.85l-.09.77Z"/>
      <path class="cls-3" d="m240.69,63.9c-.55,0-.97-.15-1.26-.44-.29-.3-.46-.71-.49-1.23-.06-.86.13-1.59.57-2.19.44-.6.99-.91,1.67-.91.92,0,1.42.47,1.48,1.4.02.31-.01.68-.1,1.14h-2.9c-.02.17-.02.36,0,.55.05.76.42,1.15,1.1,1.15.52,0,.95-.17,1.29-.52l.3.38c-.13.15-.35.3-.66.45-.31.16-.63.23-.99.23Zm1.3-2.78c.04-.15.06-.35.04-.58-.04-.57-.35-.86-.93-.86-.7,0-1.16.48-1.37,1.44h2.25Z"/>
      <path class="cls-3" d="m246.87,63.82h-.69c.05-.41.1-.84.15-1.28.05-.44.09-.76.12-.96.03-.2.05-.39.07-.59.02-.2.04-.34.04-.43,0-.09,0-.16,0-.22-.02-.23-.08-.39-.19-.49-.11-.1-.29-.15-.53-.15-.27,0-.52.09-.75.27-.23.18-.41.4-.54.66l-.37,3.2h-.68l.54-4.6h.64c-.03.29-.05.49-.06.62h.02c.4-.48.87-.72,1.43-.72.75,0,1.14.36,1.19,1.07,0,.07,0,.16,0,.27,0,.11-.02.27-.05.49-.02.22-.05.43-.08.64-.03.21-.07.54-.12.98s-.1.85-.14,1.25Z"/>
    </g>
    <g>
      <path class="cls-3" d="m250.25,62.25c-.03-.47.02-.94.15-1.41s.37-.87.71-1.21c.34-.34.74-.51,1.22-.51.56,0,.94.26,1.14.77h.02l.1-.67h.63c-.29,2.3-.42,3.58-.4,3.84l.06.76h-.66s-.01-.11-.03-.3-.03-.35-.04-.46h-.03c-.35.56-.82.84-1.4.84-.45,0-.8-.15-1.04-.45-.24-.3-.38-.7-.42-1.2Zm2.16-2.56c-.36,0-.66.14-.89.42-.24.28-.4.61-.48.99-.08.38-.11.77-.08,1.18.05.73.37,1.09.95,1.09.27,0,.5-.1.71-.29.2-.19.35-.43.45-.72.1-.29.17-.58.21-.87.04-.29.05-.56.03-.82-.02-.28-.11-.51-.28-.69-.17-.18-.38-.27-.62-.27Z"/>
      <path class="cls-3" d="m258.62,63.82h-.69c.05-.41.1-.84.15-1.28.05-.44.09-.76.11-.96s.05-.39.07-.59c.02-.2.04-.34.04-.43,0-.09,0-.16,0-.22-.02-.23-.08-.39-.19-.49-.11-.1-.29-.15-.53-.15-.28,0-.53.09-.75.27-.23.18-.41.4-.54.66l-.37,3.2h-.68l.54-4.6h.65c-.03.29-.05.49-.06.62h.02c.4-.48.87-.72,1.43-.72.75,0,1.15.36,1.2,1.07,0,.07,0,.17,0,.27,0,.11-.02.27-.05.49-.02.22-.05.43-.07.64-.03.21-.07.54-.12.98-.05.44-.1.85-.14,1.25Z"/>
      <path class="cls-3" d="m260.04,62.24c-.03-.47.02-.94.15-1.4.13-.46.37-.86.71-1.2.34-.34.74-.51,1.22-.51.56,0,.94.26,1.15.77h.02c.02-.35.04-.62.07-.81l.24-2.01h.67l-.79,6.75h-.62l.07-.77h-.02c-.18.28-.38.49-.6.63-.21.14-.48.21-.81.21-.45,0-.8-.15-1.04-.46-.24-.31-.38-.71-.42-1.21Zm2.16-2.56c-.36,0-.66.14-.89.42-.24.28-.4.61-.48.99-.08.38-.11.77-.08,1.18.05.73.37,1.09.96,1.09.27,0,.5-.1.71-.29.2-.19.35-.43.45-.72.1-.29.17-.58.21-.88.04-.3.05-.57.03-.81-.02-.28-.11-.51-.28-.7-.17-.19-.38-.28-.63-.28Z"/>
    </g>
    <g>
      <path class="cls-3" d="m266.69,62.25c-.04-.47.01-.94.15-1.41.13-.46.37-.87.71-1.21.34-.34.75-.51,1.23-.51.57,0,.95.26,1.16.77h.02l.1-.67h.64c-.28,2.3-.42,3.58-.4,3.84l.07.76h-.67s-.01-.11-.03-.3c-.02-.19-.04-.35-.04-.46h-.03c-.36.56-.83.84-1.42.84-.45,0-.8-.15-1.05-.45-.25-.3-.39-.7-.43-1.2Zm2.17-2.56c-.36,0-.66.14-.9.42-.24.28-.4.61-.48.99-.08.38-.11.77-.08,1.18.06.72.38,1.09.96,1.09.27,0,.51-.1.71-.29.2-.19.36-.43.46-.72.1-.29.17-.58.22-.87.04-.29.05-.56.03-.82-.02-.28-.12-.51-.29-.69s-.38-.27-.63-.27Z"/>
      <path class="cls-3" d="m271.7,62.24c-.04-.47.01-.94.15-1.4.13-.46.37-.86.71-1.2.34-.34.75-.51,1.23-.51.56,0,.95.26,1.17.77h.02c.02-.35.04-.62.07-.81l.24-2.01h.68l-.78,6.75h-.63l.07-.77h-.02c-.18.28-.38.49-.6.63-.22.14-.49.21-.81.21-.45,0-.8-.15-1.05-.46-.25-.31-.39-.71-.43-1.21Zm2.17-2.56c-.36,0-.66.14-.9.42-.24.28-.4.61-.48.99-.08.38-.11.77-.08,1.18.06.72.38,1.09.97,1.09.27,0,.51-.1.71-.29.2-.19.36-.43.46-.72.1-.29.17-.58.21-.88s.05-.57.03-.81c-.02-.28-.12-.51-.29-.7s-.38-.28-.64-.28Z"/>
      <path class="cls-3" d="m277.15,59.23h.7c-.05.41-.1.84-.15,1.28-.05.44-.09.76-.11.96-.02.2-.05.39-.07.59-.02.2-.03.34-.04.43,0,.09,0,.16,0,.22.02.23.08.39.2.49.11.1.29.16.53.16.28,0,.53-.09.76-.27.23-.18.41-.4.55-.66l.36-3.2h.69l-.53,4.59h-.65c.03-.29.05-.49.06-.62h-.02c-.4.48-.88.72-1.44.72-.76,0-1.16-.36-1.22-1.07,0-.07,0-.16,0-.27,0-.11.02-.27.04-.49.02-.22.05-.43.07-.64.03-.21.06-.54.12-.98.05-.44.1-.85.14-1.25Z"/>
      <path class="cls-3" d="m282.28,63.82h-.7l.79-6.78h.7l-.79,6.78Z"/>
      <path class="cls-3" d="m285.65,63.8c-.23.07-.49.1-.78.1-.46,0-.71-.27-.75-.82,0-.06,0-.13,0-.22,0-.09.02-.22.04-.41s.04-.38.06-.56c.02-.19.06-.48.1-.9.05-.41.09-.8.14-1.17h-.6l.06-.45c.13,0,.24-.02.33-.08.09-.05.17-.1.22-.15s.11-.15.16-.3c.06-.15.09-.26.12-.35.02-.09.06-.24.12-.46h.5l-.15,1.19h.96l-.06.6h-.97c-.03.3-.07.6-.1.9-.04.3-.07.54-.09.71s-.04.35-.06.52-.03.3-.04.39c0,.09-.02.17-.03.25,0,.08-.01.15-.01.19,0,.05,0,.09,0,.13.01.17.05.28.12.33.07.05.18.07.33.07.18,0,.3-.01.37-.03,0,.11,0,.28,0,.51Z"/>
      <path class="cls-3" d="m288,63.35c.28,0,.52-.1.7-.28.19-.19.27-.41.25-.65-.02-.21-.13-.38-.33-.51-.21-.13-.43-.23-.67-.29-.24-.06-.47-.18-.68-.34-.21-.16-.32-.37-.34-.62-.03-.43.11-.79.43-1.09.32-.29.76-.44,1.31-.44.27,0,.53.06.76.17.24.11.42.24.56.38l-.35.41c-.32-.27-.69-.41-1.11-.41-.24,0-.45.07-.65.2-.2.13-.29.32-.27.56.01.14.09.26.23.36.14.1.31.18.5.25.2.07.39.15.59.23.19.09.36.21.51.37.15.16.23.35.24.58.04.5-.12.91-.47,1.22-.36.31-.78.46-1.28.46-.35,0-.66-.07-.94-.22-.27-.15-.47-.29-.57-.43.01-.02.08-.1.2-.23.12-.14.19-.21.19-.22.03.04.08.09.14.15.06.06.2.15.41.25.21.11.42.16.64.16Z"/>
    </g>
  </g>
  <g>
    <path class="cls-4" d="m37.32,45.34s0-.06,0-.09c-.08-.11-.07-.24-.06-.37,0-.16-.04-.28-.17-.37,0-.08,0-.16-.01-.23-.12-.19-.06-.4-.06-.6,0-.15-.04-.28-.17-.37v-.38c-.14-.26-.06-.55-.07-.82,0-.16-.03-.3-.17-.39,0-.16,0-.32,0-.47-.09-.11-.07-.24-.07-.37,0-.66,0-1.32,0-1.99,0-.16-.02-.3-.17-.39-.12-.01-.27.02-.25-.19,0-.06-.07-.05-.11-.05-.05,0-.11,0-.11-.06.02-.22-.15-.16-.26-.18-.12-.01-.23.01-.24-.18,0-.12-.14-.05-.22-.07-.1-.03-.26.04-.24-.17,0-.06-.06-.07-.1-.07-.05,0-.13,0-.13-.04,0-.27-.21-.18-.34-.21-.09-.02-.16-.02-.15-.13,0-.07-.03-.11-.1-.1-.11,0-.17-.03-.16-.15,0-.06-.04-.08-.09-.08-.13,0-.25-.05-.38-.01-.14.1-.17.24-.17.4,0,.61,0,1.21,0,1.82,0,.12,0,.24-.07.35,0,.35,0,.7-.01,1.05-.13.09-.18.21-.17.37,0,.12.02.26-.06.37,0,.33-.01.66-.02.98,0,.06,0,.15-.01.16-.39.15-.14.49-.22.72,0,.01,0,.03,0,.05-.23.09-.12.34-.23.49,0,.15,0,.3-.01.46,0,.11.05.26-.17.27-.11,0-.05.15-.06.23-.02.11.04.27-.17.27-.08,0-.05.09-.05.14,0,.17,0,.34-.02.5-.01.12.06.29-.18.32-.1.01-.04.18-.05.28-.01.09.02.2-.14.19-.09,0-.09.06-.1.13,0,.12-.01.24-.02.36,0,.11.01.21-.16.23-.13.02-.05.18-.07.27-.02.1.01.2-.15.21-.14,0-.05.16-.09.24-.11.07-.19.16-.18.31,0,.06-.01.13-.06.17h0c-.11.07-.19.16-.18.31,0,.06-.01.13-.06.17-.16,0-.24.04-.23.23,0,.11.05.28-.18.28-.08,0-.04.12-.05.18-.01.09-.02.17-.02.26-.09.07-.18.15-.23.25h0c-.24.18-.42.41-.48.72-.03.1.03.26-.18.24-.04,0-.07.04-.07.08,0,.1-.02.17-.15.16-.06,0-.09.03-.09.09,0,.11-.02.17-.15.16-.07,0-.1.04-.09.11,0,.08-.02.14-.12.14-.1,0-.12.05-.12.13,0,.05,0,.11-.07.11-.21-.02-.14.14-.17.24-.25.23-.49.47-.72.72-.1.02-.26-.03-.24.17,0,.07-.07.08-.12.08-.06,0-.11.02-.11.09,0,.12-.05.15-.16.15-.06,0-.09.03-.09.09,0,.12-.05.16-.16.15-.06,0-.09.03-.09.09,0,.12-.05.16-.16.15-.03,0-.08.03-.08.04.02.27-.2.19-.33.21-.09.02-.16.02-.15.13,0,.09-.05.11-.13.1-.08,0-.12.02-.12.11,0,.09-.04.13-.13.13-.04,0-.11.02-.11.03-.01.28-.23.19-.38.22-.04,0-.1,0-.1.04.01.24-.17.18-.3.19-.11.01-.19,0-.2.16-.02.14-.17.06-.27.08-.1.03-.2-.01-.21.15,0,.14-.16.05-.24.09-.08.07-.17.06-.27.07-.17,0-.35-.03-.45.17-.03.06-.11.06-.17.06-.14,0-.24.06-.31.18h0c-.11.09-.24.07-.36.07-.15,0-.28.03-.36.17h0c-.18.13-.38.06-.58.07-.16,0-.3.03-.39.17-.06,0-.12,0-.19,0-.08.07-.17.08-.27.08-.48,0-.95,0-1.43,0-.1,0-.19,0-.27-.08h0c-.07-.11-.16-.19-.31-.18-.06,0-.13-.01-.17-.06-.16.01-.24-.03-.24-.22,0-.1.04-.26-.18-.27-.1,0-.03-.15-.07-.23-.04-.11-.13-.19-.23-.25h0c-.09-.09-.08-.21-.08-.32,0-.83,0-1.66,0-2.49,0-.11,0-.23.08-.32h0c.14-.08.18-.21.17-.37,0-.19,0-.38,0-.57,0-.1,0-.19.07-.27h0c.14-.08.18-.21.17-.36,0-.12-.02-.26.06-.37h0c.14-.08.18-.2.17-.36,0-.12-.02-.26.06-.37,0-.08,0-.16,0-.23.11-.08.19-.17.17-.31,0-.06.01-.13.06-.18,0-.1.01-.21,0-.31,0-.1,0-.18.13-.17.09,0,.09-.07.09-.13,0-.14.02-.27.02-.41,0-.09,0-.18.13-.18.14,0,.08-.13.1-.2.03-.12-.06-.31.18-.31.06,0,.04-.07.05-.12,0-.14.01-.29.02-.43,0-.05-.02-.14.06-.14.21.01.17-.13.18-.25.11-.07.19-.16.18-.31,0-.06.01-.13.06-.18,0-.1.02-.2.02-.3,0-.09,0-.16.13-.17.16-.01.06-.16.1-.24.11-.07.19-.16.18-.31,0-.06.01-.13.06-.17,0-.12-.03-.25.18-.26.11,0,.04-.18.06-.28.02-.09-.02-.19.14-.2.17-.01.07-.17.1-.25.03-.1-.03-.24.16-.22.08,0,.07-.07.07-.12,0-.14.02-.27.02-.41,0-.1,0-.18.13-.17.11,0,.08-.09.1-.15.03-.13-.07-.34.2-.35.07,0,.01-.18.05-.19.28-.07.21-.29.24-.48,0-.01.01-.04.02-.04.32-.03.17-.28.21-.44.03-.12-.06-.31.19-.3.06,0,.05-.07.05-.12,0-.05,0-.12.04-.12.24,0,.18-.17.19-.3.01-.11,0-.19.16-.21.14-.02.06-.17.08-.27.03-.1-.02-.21.15-.21.11,0,.07-.1.08-.16.03-.13-.06-.31.2-.33.08,0,.04-.17.05-.26.02-.1,0-.2.16-.21.14-.01.06-.16.08-.24.03-.1-.02-.22.16-.23.11,0,.05-.13.07-.2.03-.11-.05-.28.18-.29.11,0,.03-.15.07-.23.24-.19.43-.41.47-.73h0c.12-.06.19-.16.18-.3,0-.06.01-.13.06-.17.02-.1-.04-.25.16-.25.11,0,.06-.11.07-.17.03-.13-.06-.31.2-.33.09,0,.04-.17.06-.26.02-.1,0-.2.15-.2.14,0,.06-.15.09-.23.25-.22.24-.55-.01-.72-.1-.03-.26.02-.23-.18.01-.08-.07-.07-.12-.07-.06,0-.12-.01-.11-.09,0-.11-.04-.16-.15-.15-.06,0-.09-.03-.09-.09,0-.11-.04-.16-.15-.16-.06,0-.09-.03-.09-.09,0-.11-.04-.16-.15-.15-.07,0-.1-.04-.09-.11,0-.09-.04-.13-.13-.13-.06,0-.11-.02-.11-.09,0-.11-.04-.16-.15-.15-.08,0-.09-.05-.09-.11,0-.09-.04-.13-.13-.13-.07,0-.11-.02-.11-.1,0-.02,0-.06,0-.07-.13-.07-.23-.17-.31-.3-.04-.06-.18-.07-.17-.21-.23.03-.18-.3-.39-.29-.06,0-.08-.04-.08-.09,0-.03,0-.06-.01-.1-.23.04-.18-.28-.39-.3-.15-.01-.07-.17-.1-.26-.03-.1-.01-.21-.17-.19-.07,0-.08-.06-.08-.12,0-.06,0-.12-.09-.11-.11,0-.16-.04-.15-.15,0-.08-.04-.1-.11-.09-.09,0-.13-.03-.13-.13,0-.06,0-.12-.09-.11-.12,0-.16-.05-.15-.16,0-.06-.03-.09-.09-.09-.11,0-.16-.03-.16-.15,0-.16-.15-.06-.22-.11-.04-.28-.2-.44-.48-.49-.02-.1.04-.26-.17-.24-.08,0-.08-.07-.08-.12,0-.06,0-.12-.09-.12-.12,0-.16-.05-.15-.16,0-.03-.03-.08-.04-.08-.25.02-.19-.18-.21-.31-.02-.09,0-.18-.14-.17-.09,0-.1-.06-.1-.13,0-.06-.01-.12-.09-.11-.12,0-.15-.05-.15-.16,0-.06-.03-.09-.09-.09-.12,0-.16-.05-.15-.16,0-.04-.02-.08-.07-.08-.12,0-.18-.04-.17-.17,0-.08-.06-.08-.12-.09-.06,0-.12,0-.11-.09.01-.13-.05-.15-.17-.17-.14-.03-.06-.18-.09-.27-.03-.09,0-.2-.15-.19-.07,0-.1-.05-.09-.11,0-.09-.03-.13-.13-.13-.06,0-.11-.02-.11-.09,0-.11-.03-.17-.15-.16-.06,0-.09-.04-.08-.09,0-.11-.03-.16-.15-.16-.14,0-.06-.14-.09-.21-.04-.1.03-.28-.19-.26-.05,0-.07-.04-.06-.09,0-.11-.03-.17-.15-.16-.06,0-.09-.03-.09-.09,0-.1-.02-.17-.14-.16-.08,0-.09-.05-.09-.11,0-.05,0-.12-.05-.12-.25,0-.19-.19-.2-.32-.01-.11-.03-.17-.15-.16-.04,0-.09-.02-.08-.06.01-.15-.05-.2-.19-.2-.05,0-.03-.08-.05-.09-.19-.15-.27-.35-.27-.58-.25.06-.15-.34-.41-.31-.04,0-.04-.19-.05-.29-.01-.09,0-.16-.13-.15-.07,0-.11-.02-.1-.1.01-.11-.03-.16-.15-.16-.13,0-.08-.11-.09-.18-.03-.12.06-.29-.18-.31-.11,0-.05-.18-.07-.28-.02-.1,0-.2-.15-.18-.06,0-.09-.04-.08-.09,0-.11-.02-.16-.14-.16-.16-.01-.05-.16-.1-.23-.05-.05-.07-.11-.06-.17.01-.15-.06-.24-.18-.31-.02-.11.04-.25-.17-.26-.11,0-.03-.15-.07-.22-.05-.05-.07-.11-.06-.17.01-.15-.07-.23-.17-.31,0-.11-.01-.22-.02-.33,0-.04,0-.11-.02-.11-.34-.06-.14-.34-.21-.51-.07-.09-.07-.19-.07-.3,0-.53,0-1.06,0-1.58,0-.1,0-.21.08-.29h0c.24-.18.42-.41.49-.71.11-.03.26.03.25-.18,0-.08.1-.05.15-.06.1,0,.2-.01.3-.02.05-.04.11-.06.18-.06.15.01.24-.07.31-.17.21,0,.41,0,.62-.01.09-.08.21-.07.32-.07.72,0,1.44,0,2.16,0,.11,0,.23,0,.32.07.14,0,.28,0,.43,0,.09.13.21.17.37.17.19,0,.38,0,.57,0,.1,0,.19,0,.27.07h0c.08.14.21.18.36.17.12,0,.25-.02.36.06.08,0,.15,0,.23,0,.09.23.34.12.49.23h0c.08.14.2.18.36.18.12,0,.25-.03.36.07h0c.07.11.16.19.31.18.06,0,.13.02.18.06h0c.06.12.16.2.3.18.06,0,.13.02.18.06.12.01.25-.02.26.18,0,.1.15.04.23.06.1.03.24-.02.22.16,0,.06.06.07.11.07.05,0,.13,0,.13.04,0,.27.2.19.34.21.09.01.16.01.15.13,0,.07.02.11.1.11.11,0,.14.04.16.15.03.16.18.08.28.1.09.03.19,0,.18.15,0,.08.05.09.11.09.09,0,.13.03.13.13,0,.06.02.11.09.11.11,0,.15.03.16.15.02.16.17.07.25.1.09.03.22,0,.2.16,0,.06.04.09.09.08.12,0,.16.04.15.16,0,.06.04.09.09.08.12,0,.16.05.15.16,0,.04.02.08.07.08.11,0,.18.03.17.16,0,.08.06.08.12.08.08,0,.12.03.12.11,0,.09.03.14.12.13.1,0,.13.04.12.13,0,.08.04.11.12.11.06,0,.12,0,.11.09,0,.11.04.16.15.16.07,0,.1.04.1.11,0,.08.02.14.12.14.08,0,.12.03.12.11,0,.04.02.1.03.1.28,0,.19.24.22.38,0,.04,0,.1.05.09.14,0,.21.05.19.2.22-.01.18.29.37.3.06,0,.09.03.09.09,0,.1.02.17.14.16.08,0,.09.05.09.11,0,.06,0,.13.07.13.21-.02.15.14.17.24.05.05.07.11.06.17-.01.15.06.24.18.3.19-.02.24.09.23.25,0,.1-.04.26.16.24.09,0,.06.09.07.15.04.13-.06.34.21.34.05,0,.04.08.04.12,0,.05,0,.11.07.11.2-.02.14.15.17.24.05.05.07.11.06.17-.01.15.06.24.18.3h0c.05.05.07.11.06.18-.01.15.06.24.18.31.03.1-.04.24.16.25.13,0,.05.17.08.27.03.1,0,.2.15.21.14,0,.05.16.08.24.04.05.06.11.06.18-.01.15.06.24.18.31h0s.07.11.06.17c-.01.15.07.24.18.31,0,.11.01.22.02.33,0,.05,0,.12.04.12.22,0,.17.16.18.28,0,.11-.03.24.17.24.09,0,.06.1.06.15,0,.1.01.21.01.31.04.05.06.11.06.18-.01.15.07.24.17.31,0,.08,0,.16,0,.23.04.05.06.11.06.18-.01.15.06.24.17.31,0,.15,0,.3.01.46,0,.11-.04.27.17.27.07,0,.05.09.06.14,0,.15.01.3.02.46,0,.07,0,.13.1.13.12,0,.12.07.12.16,0,.26.01.53.02.79.05.06.06.13.05.2-.01.14.08.21.17.29,0,.31,0,.61.02.91,0,.12-.06.28.17.29.09,0,.05.12.05.19,0,.58.01,1.16.02,1.73,0,.11-.04.26.16.24.02,0,.06.02.06.03,0,.27.21.2.35.22.08.01.14.02.13.12,0,.09.05.11.12.11.05,0,.13,0,.13.07-.02.21.14.14.24.17.06.12.15.19.3.18.06,0,.13.01.17.07-.01.18.08.24.25.23.07.12.16.19.3.18.06,0,.13.01.17.06-.01.17.06.25.24.23.08,0,.15.01.23.02.04.03.06.07.1.1.15.11.3.05.31-.14.01-.21,0-.43,0-.64,0-.1,0-.21.06-.3,0-.16,0-.32,0-.47.13-.09.17-.22.16-.37,0-.26,0-.52,0-.79,0-.1,0-.21.07-.29,0-.26,0-.53.01-.79,0-.06-.03-.15.06-.15.2,0,.16-.13.16-.25,0-.16,0-.32.01-.48,0-.12-.04-.27.17-.27.07,0,.05-.09.05-.14,0-.21.01-.42.02-.62,0-.05-.02-.15.03-.16.32-.03.16-.28.2-.44.04-.12-.07-.32.18-.33.05,0,.04-.08.04-.12,0-.11.01-.22.02-.34.23-.09.12-.34.23-.49,0-.08,0-.16,0-.23.11-.07.19-.16.17-.31,0-.06.02-.13.06-.18.02-.12-.04-.27.18-.26.06,0,.05-.07.05-.12,0-.14.01-.29.02-.43,0-.05-.02-.14.05-.14.23,0,.17-.16.18-.28,0-.11-.02-.23.16-.22.11,0,.06-.11.07-.17.03-.12-.07-.31.19-.33.09,0,.04-.17.05-.26.02-.1-.02-.21.15-.21.11,0,.07-.1.09-.16.04-.12-.06-.32.2-.33.08,0,.05-.14.05-.21,0-.17.05-.27.24-.26.12-.06.19-.16.18-.3,0-.06.01-.13.06-.17.03-.1-.04-.26.17-.24.06,0,.07-.05.07-.1,0-.05,0-.13.04-.12.22.01.2-.15.19-.27-.01-.19.07-.24.24-.23.26-.17.42-.41.49-.72.03-.1-.03-.26.17-.24.07,0,.07-.07.07-.13,0-.06.01-.12.09-.11.12,0,.15-.05.15-.16,0-.06.03-.09.09-.09.11,0,.16-.04.15-.15,0-.07.04-.1.11-.09.09,0,.13-.04.12-.13,0-.06.02-.12.09-.11.11,0,.16-.04.15-.15,0-.03.03-.08.04-.08.25.02.19-.19.21-.31.02-.12.05-.16.17-.17.13-.01.33.04.31-.21.23.04.19-.29.39-.28.06,0,.09-.03.09-.09,0-.12.04-.16.15-.15.04,0,.09-.01.09-.06-.02-.21.15-.19.25-.18.19,0,.23-.08.23-.24.02-.02.05-.05.08-.05.32,0,.46-.24.64-.44-.02-.19.09-.24.26-.24.11,0,.23.03.25-.17,0-.12.16-.05.25-.07.1-.02.22.02.22-.16,0-.12.13-.06.19-.08.11-.03.28.05.29-.18,0-.1.15-.03.23-.06.05-.05.11-.07.17-.06.15.01.24-.06.31-.18h0s.11-.07.17-.06c.15.01.24-.07.31-.17.11,0,.22-.01.33-.02.04,0,.11-.01.11-.03.05-.31.3-.17.47-.2.12-.03.3.06.31-.18,0-.07.09-.04.14-.05.18,0,.37-.02.55-.02.11-.08.24-.06.37-.06.16,0,.28-.03.36-.17.25,0,.51,0,.76-.01.07-.06.16-.07.25-.07.46,0,.92,0,1.39,0,.09,0,.18.01.25.07.15,0,.3,0,.45.02.11.01.26-.04.27.17,0,.11.15.06.23.06.17,0,.27.04.25.24-.02.18.06.26.24.25.05.05.07.11.06.17-.01.15.06.24.18.31h0c.08.08.08.19.08.29,0,.59,0,1.18,0,1.77,0,.1,0,.21-.07.3,0,.01,0,.03,0,.04-.14.08-.17.21-.17.36,0,.2.06.41-.07.6h0c-.11.07-.19.16-.18.31,0,.06-.02.13-.06.18,0,.08,0,.16,0,.23-.24.09-.13.34-.23.49-.01.12.03.27-.18.26-.06,0-.05.07-.05.12-.01.14-.02.27-.03.41,0,.09,0,.18-.13.18-.09,0-.08.07-.1.13-.03.14.08.35-.2.37-.06,0-.02.15-.04.22-.11.07-.19.16-.18.31,0,.06-.01.13-.06.17h0c-.11.07-.19.16-.18.31,0,.06-.01.13-.06.17h0c-.12.07-.19.16-.18.31,0,.06-.01.13-.06.17-.01.12.02.25-.18.25-.1,0-.03.15-.06.22-.1.06-.18.14-.23.25h0c-.12.07-.19.16-.18.3,0,.06-.01.13-.06.18-.02.1.05.25-.16.25-.12,0-.06.13-.08.19-.03.11.05.27-.18.29-.12,0-.05.18-.07.27-.02.09.01.2-.14.19-.09,0-.09.07-.1.13,0,.06,0,.12-.08.12-.12,0-.15.06-.14.16,0,.04,0,.1-.06.09-.21-.02-.17.13-.18.25,0,.12,0,.22-.18.24-.12.01-.05.18-.07.27-.02.09,0,.19-.15.19-.13,0-.07.11-.09.18-.03.12.05.31-.19.3-.06,0-.05.07-.05.12,0,.08-.02.13-.11.12-.1,0-.12.05-.12.13,0,.06,0,.13-.08.12-.16-.01-.14.1-.16.2-.02.11.05.3-.18.28-.06,0-.05.07-.06.11,0,.04-.02.11-.03.11-.28.01-.19.24-.22.38-.01.06-.02.11-.09.11-.1,0-.15.03-.14.14,0,.05,0,.11-.07.11-.22-.02-.15.16-.17.26-.02.1.03.24-.16.22-.06,0-.08.04-.08.09,0,.11-.04.15-.15.16-.15.02-.07.17-.09.26-.03.1,0,.21-.16.2-.06,0-.08.04-.08.1,0,.11-.03.15-.15.16-.16.02-.07.17-.1.26-.03.09.01.22-.16.2-.06,0-.09.04-.08.09,0,.11-.04.15-.15.16-.15.01-.05.16-.09.23-.16.16-.35.29-.46.49-.01.12,0,.25-.19.26-.1,0-.05.16-.07.25-.02.1,0,.21-.16.2-.06,0-.08.04-.08.1,0,.11-.04.16-.15.15-.06,0-.08.04-.08.1,0,.11-.04.16-.15.15-.06,0-.08.04-.08.1,0,.11-.04.15-.15.16-.16,0-.05.16-.1.23-.12.06-.19.15-.18.3,0,.06-.01.13-.07.17h0c-.1.06-.18.14-.24.25-.18-.02-.25.07-.24.25.02.17-.05.27-.24.24-.26.18-.26.52,0,.72.16,0,.25.04.24.23,0,.1-.04.28.18.26.08,0,.06.08.06.13,0,.06.02.11.09.11.12,0,.15.06.14.16,0,.04.02.09.07.08.22-.02.15.16.18.26.02.11-.01.23.17.22.08,0,.08.07.08.12,0,.08.02.12.11.12.09,0,.13.03.13.13,0,.09.03.13.13.13.09,0,.1.05.11.12,0,.04.03.1.04.1.28,0,.17.22.21.36.01.05,0,.13.08.12.21-.02.14.14.17.24.05.11.13.19.23.25h0c.05.11.14.18.23.25.02.11-.04.26.17.24.08,0,.07.07.08.12,0,.05,0,.12.06.11.21-.02.17.14.19.25.02.12,0,.25.18.23.06,0,.05.07.06.11,0,.04.02.11.03.11.27,0,.2.21.22.36.01.08.03.14.12.13.06,0,.11.02.11.09,0,.11.04.15.15.16.15.02.05.16.09.24.05.11.13.19.23.25h0c0,.21.04.39.25.47.19-.02.24.09.24.25,0,.11-.03.24.17.24.12,0,.06.15.07.22,0,.17.05.27.24.26.05.05.07.11.06.17-.01.15.06.24.18.3h0c.05.11.13.19.23.25.03.1-.03.24.17.25.13,0,.08.17.07.24,0,.18.07.24.24.23.05.04.07.11.07.17-.01.15.06.24.18.3h0c.05.11.13.19.23.25.01.12-.03.25.18.26.11,0,.05.18.07.27.02.1,0,.19.15.19.11,0,.07.1.09.16.04.12-.06.31.2.33.09,0,.04.17.06.26.02.1,0,.21.16.2.06,0,.08.05.07.1,0,.11.03.16.15.16.1,0,.08.07.09.13.03.14-.08.35.2.37.07,0,.03.17.04.27.01.09,0,.19.14.19.13,0,.08.11.1.18.03.12-.06.29.18.32.1,0,.04.17.06.26.02.1-.02.21.15.21.11,0,.07.1.09.16.03.12-.07.32.19.33.08,0,.03.12.05.19.03.11-.05.28.18.29.1,0,.03.15.06.23.04.05.06.11.06.18-.01.15.06.24.18.31.02.1-.05.26.16.24.08,0,.08.06.08.12,0,.12,0,.24.01.36.04.05.06.11.06.18-.01.15.07.24.17.31,0,.08,0,.16,0,.23.09.11.07.24.06.37,0,.16.03.28.17.36h0c.08.09.08.19.08.3,0,.69,0,1.38,0,2.07,0,.1,0,.21-.07.3,0,.12.03.25-.18.26-.1,0-.04.15-.06.23-.03.11.02.26-.17.23-.03,0-.07.02-.06.05.02.21-.13.17-.25.18-.05.05-.11.07-.17.06-.15-.01-.24.07-.31.18h-.47c-.08.07-.18.08-.27.08-.51,0-1.02,0-1.53,0-.1,0-.19,0-.27-.07h-.57c-.08-.15-.21-.19-.36-.18-.12,0-.25.02-.37-.06-.15,0-.3,0-.45-.02-.11-.01-.27.04-.27-.17,0-.08-.1-.05-.16-.05-.1,0-.21,0-.31-.01-.09-.23-.34-.12-.49-.23-.1,0-.2-.01-.3-.02-.09,0-.16,0-.17-.13-.01-.17-.16-.06-.24-.1-.07-.11-.16-.19-.31-.18-.06,0-.13-.01-.17-.06-.12-.01-.25.04-.26-.17,0-.11-.16-.05-.25-.07-.1-.02-.21,0-.21-.16,0-.13-.12-.07-.19-.09-.12-.03-.31.05-.3-.19,0-.06-.07-.04-.12-.05-.04,0-.11-.02-.11-.03,0-.28-.23-.18-.36-.22-.05-.02-.12,0-.12-.08,0-.11-.04-.16-.16-.15-.09,0-.1-.06-.1-.13,0-.07-.03-.11-.1-.1-.11,0-.15-.04-.16-.15-.02-.16-.17-.07-.26-.1-.09-.03-.22,0-.2-.16,0-.06-.03-.09-.09-.09-.11,0-.17-.03-.16-.15,0-.06-.04-.09-.09-.08-.11,0-.15-.03-.16-.15,0-.16-.16-.06-.23-.1-.02-.02-.05-.04-.05-.08-.04-.36-.23-.55-.59-.59-.03,0-.06-.03-.08-.05-.03-.1.03-.26-.18-.24-.07.01-.08-.06-.08-.12,0-.06,0-.12-.09-.11-.12,0-.15-.06-.14-.16,0-.06-.02-.1-.08-.09-.11,0-.16-.04-.15-.15,0-.04-.01-.09-.06-.09-.21.02-.19-.14-.18-.25.01-.19-.08-.23-.24-.23-.02-.02-.05-.05-.05-.08,0-.32-.24-.46-.44-.64-.03-.1.03-.26-.18-.24-.07,0-.07-.08-.07-.13,0-.06-.01-.12-.09-.11-.12,0-.15-.06-.14-.16,0-.03-.02-.08-.04-.08-.27,0-.18-.21-.21-.34-.01-.06,0-.14-.09-.14-.17,0-.13-.11-.15-.21-.02-.12.04-.29-.19-.28-.06,0-.04-.07-.05-.12,0-.04-.02-.11-.03-.11-.29,0-.18-.24-.21-.39-.01-.05,0-.11-.07-.11-.21.02-.14-.14-.16-.25-.05-.05-.07-.11-.06-.17.01-.15-.06-.24-.18-.31-.02-.11.03-.25-.17-.27-.1-.01-.05-.18-.06-.28-.02-.1,0-.2-.14-.19-.08,0-.08-.06-.08-.12,0-.14-.02-.27-.03-.41,0-.1,0-.18-.14-.19-.13,0-.06-.14-.08-.21-.03-.12.04-.29-.18-.28-.07,0-.05-.09-.05-.14,0-.13-.02-.25-.02-.38,0-.1,0-.19-.15-.19-.08,0-.08-.06-.08-.12,0-.12,0-.24-.01-.36-.04-.05-.06-.11-.06-.18.01-.15-.07-.24-.17-.32,0-.08,0-.16,0-.23-.11-.16-.06-.34-.07-.51,0-.15-.03-.28-.17-.36Z"/>
    <path class="cls-7" d="m30.59,15.4c-.1-.03-.26.04-.24-.17,0-.06-.05-.07-.1-.07-.1,0-.16-.02-.16-.14,0-.16-.16-.05-.23-.1-.07-.12-.16-.19-.31-.18-.06,0-.13-.01-.17-.07,0-.16-.05-.24-.23-.24-.11,0-.28.03-.25-.18,0-.06-.06-.06-.11-.06-.09,0-.14-.03-.13-.12,0-.05,0-.11-.06-.11-.14.01-.2-.05-.2-.19,0-.05-.06-.04-.09-.05-.04,0-.11-.01-.11-.02-.02-.29-.25-.22-.42-.25-.07-.01-.07-.06-.07-.11,0-.06,0-.13-.08-.12-.2.03-.17-.3-.39-.23-.02-.08-.04-.15-.04-.23,0-.11,0-.22-.16-.2-.06,0-.08-.04-.08-.1,0-.11-.03-.17-.15-.16-.06,0-.09-.03-.09-.09.01-.13-.04-.17-.16-.17-.08,0-.07-.07-.07-.12,0-.05,0-.12-.05-.11-.21.02-.19-.14-.19-.25,0-.18-.08-.24-.24-.24-.05-.05-.07-.11-.06-.17.01-.15-.06-.24-.18-.31-.03-.09.04-.24-.17-.24-.13,0-.04-.16-.08-.24-.04-.05-.07-.11-.06-.18.01-.15-.06-.24-.18-.31h0c-.04-.05-.06-.11-.06-.18.01-.15-.06-.24-.18-.31h0c-.09-.11-.07-.24-.07-.36,0-.16-.03-.28-.17-.36,0-.08,0-.16,0-.23-.08-.11-.07-.24-.06-.37,0-.16-.03-.28-.17-.37,0-.08,0-.16,0-.24-.06-.07-.07-.16-.07-.25,0-.48,0-.96,0-1.44,0-.09.01-.18.07-.25v-.24c.14-.09.17-.21.18-.37,0-.2-.06-.41.07-.6h0c.11-.07.19-.16.18-.31,0-.06.02-.13.06-.18,0-.08,0-.15.01-.23.46-.28.95-.4,1.48-.32.07.01.14.02.2.07h0c.07.11.16.19.31.18.06,0,.13.01.18.06.12,0,.27-.02.24.19,0,.06.06.06.11.06.09,0,.14.02.13.12,0,.06,0,.12.09.11.12-.01.15.04.18.16.03.14.19.07.28.1.09.03.17.01.16.14,0,.09.05.11.12.1.08,0,.13.02.12.11-.01.11.05.14.15.13.05,0,.1.01.1.08-.01.13.05.17.17.16.08,0,.08.06.08.12,0,.06,0,.12.08.11.13-.01.17.05.16.17,0,.06.04.08.09.08.11-.01.16.04.15.15,0,.06.02.09.08.09.11-.01.16.03.15.15,0,.09.05.11.12.1.06,0,.12.01.11.09,0,.11.04.15.15.16.17.02.08.18.11.27.03.09,0,.2.15.18.05,0,.1.02.09.08-.01.13.05.17.17.16.08,0,.07.07.07.13,0,.08.02.13.11.12.09,0,.14.02.13.12,0,.02,0,.04,0,.05.14.07.23.28.3.3.17.05.16.14.18.25.02.11-.02.27.19.25.06,0,.06.06.06.11,0,.09.03.14.12.13.08,0,.12.04.11.12-.01.11.04.15.14.14.07,0,.09.04.1.1,0,.05-.01.14.06.13.22-.02.19.15.18.26,0,.19.08.24.24.23.06.04.07.11.07.17,0,.15.06.24.18.3.19-.02.25.08.23.25-.02.17.04.27.23.25.06.04.07.11.07.17,0,.15.06.24.18.3.03.1-.04.26.17.24.08,0,.06.07.07.13,0,.05,0,.12.05.11.22-.02.2.15.19.27-.01.19.09.23.24.23.02.02.04.04.04.06-.05.31.22.4.39.55.15.13.22-.03.29-.13h0c.05-.04.11-.07.18-.06.15.02.24-.07.31-.17.08,0,.15,0,.23-.01.05-.04.11-.06.18-.06.15.02.24-.07.31-.17h.23c.05-.05.11-.07.18-.07.15.01.24-.07.31-.17.08,0,.16,0,.23-.01.05-.04.1-.06.15-.05.15.01.26-.06.34-.17.12,0,.24,0,.36-.02.04,0,.11-.02.11-.03.03-.3.26-.17.42-.2.1-.02.21-.01.31-.01.05-.04.11-.06.18-.06.15.01.24-.07.32-.17.15,0,.3,0,.45-.02.11-.01.27.05.27-.17,0-.06.07-.05.12-.05.14,0,.29-.01.43-.01.1,0,.2.01.19-.14,0-.1.08-.08.14-.08.19,0,.38,0,.57-.01.11-.09.24-.07.37-.06.16,0,.28-.04.36-.17.16,0,.32,0,.47,0,.18-.12.39-.06.58-.06.16,0,.3-.03.39-.17.96,0,1.92,0,2.88,0,.08.11.17.19.31.18.06,0,.13.01.17.07.03.1-.02.26.18.23.04,0,.08.03.07.07-.03.2.12.16.22.18.04.04.07.09.07.15-.01.35.09.71-.07,1.06h0c-.11.07-.19.16-.17.31,0,.06-.01.13-.06.17h0c-.11.07-.19.16-.18.31,0,.06-.01.13-.06.18h0c-.11.07-.19.15-.18.29,0,.03,0,.08-.02.09-.21.12-.19.36-.29.54-.1.03-.27-.03-.23.18,0,.02-.03.07-.04.07-.21-.03-.19.15-.21.26-.02.11-.01.22-.18.21-.08,0-.07.07-.07.13,0,.06-.02.11-.09.11-.11,0-.16.04-.15.15,0,.06-.03.09-.09.09-.11,0-.15.04-.16.15,0,.16-.16.05-.22.11-.22.1-.37.24-.49.47-.11.02-.26-.04-.26.17,0,.12-.16.05-.24.07-.1.03-.21-.02-.22.16-.01.14-.17.06-.26.08-.1.03-.21-.01-.22.16,0,.13-.16.06-.24.08-.11.03-.25-.03-.24.17,0,.08-.08.06-.13.06-.11,0-.22.01-.33.02-.05.04-.11.06-.18.06-.15-.01-.24.07-.31.17-.1,0-.21.01-.31.01-.09,0-.18-.01-.18.13,0,.1-.07.09-.13.09-.19,0-.38.01-.58.02-.1.08-.23.07-.34.06-.16,0-.3.03-.39.17-.4,0-.8.01-1.19.02-.07.06-.16.07-.25.07-.48,0-.96,0-1.44,0-.09,0-.18-.01-.25-.07-.24,0-.48,0-.72-.01-.09-.14-.23-.17-.39-.17-.19,0-.4.05-.58-.06-.32,0-.64-.04-.96,0-.14.08-.17.21-.17.37,0,.4,0,.8,0,1.2,0,.16.04.28.17.37,0,.16,0,.32,0,.47.05.05.07.11.06.18-.01.15.07.24.17.32,0,.2.02.4,0,.6-.01.14.12.38-.19.38-.2.47-.58.13-.87.2-.05.01-.12,0-.12-.08,0-.13-.05-.17-.17-.17-.08,0-.07-.07-.07-.12,0-.19-.02-.39-.02-.58-.04-.05-.06-.11-.06-.18.01-.15-.07-.24-.17-.32,0-.24,0-.47-.01-.71-.06-.07-.07-.16-.07-.25,0-.48,0-.97,0-1.45,0-.09.01-.18.07-.25,0-.19,0-.38,0-.57,0-.1-.03-.14-.14-.14-.12,0-.24,0-.36-.01-.11,0-.21.03-.22-.16,0-.13-.16-.04-.24-.08-.08-.11-.16-.19-.31-.18-.06,0-.13-.01-.18-.06-.11-.02-.26.04-.26-.18,0-.11-.15-.03-.23-.06-.07-.12-.16-.19-.3-.18-.06,0-.13-.01-.17-.06Z"/>
    <path class="cls-7" d="m33.48,61.38c-.08,0-.16,0-.23,0-.11.09-.24.07-.36.07-.15,0-.28.03-.36.17h0c-.11.09-.24.07-.36.07-.15,0-.28.03-.36.17-.11,0-.22,0-.33.01-.04,0-.11,0-.11.01-.06.34-.34.16-.52.22-.11.09-.24.07-.36.06-.16,0-.28.04-.36.17h0c-.1.09-.22.08-.34.07-.16,0-.3.03-.39.17-.23,0-.47.01-.7.02-.19.11-.4.06-.6.06-.15,0-.28.04-.37.17-.08,0-.16,0-.23,0-.09.08-.21.07-.32.08-.91,0-1.82,0-2.73,0-.11,0-.23,0-.32-.08-.1,0-.21-.01-.31,0-.1,0-.18,0-.17-.14,0-.05-.02-.11-.08-.1-.21.03-.15-.13-.17-.24-.05-.06-.07-.13-.07-.2,0-.35,0-.7,0-1.06,0-.07.02-.14.07-.2v-.23c.12-.07.2-.16.18-.31,0-.06.01-.13.06-.18h0c.24-.19.43-.41.47-.73.01-.12-.03-.25.18-.26.11,0,.04-.18.08-.27.03-.08,0-.18.14-.17.07,0,.11-.03.1-.1-.01-.12.04-.16.15-.15.06,0,.09-.03.09-.09,0-.11.03-.16.15-.15.06,0,.09-.03.09-.09-.02-.13.05-.17.17-.16.05,0,.08-.03.07-.07-.03-.21.14-.14.23-.17.23-.1.37-.23.49-.47.08,0,.15-.02.23-.02.17.01.25-.06.25-.23.05-.05.11-.07.17-.07.15.01.24-.06.3-.18h0s.11-.07.17-.06c.15.01.24-.06.3-.18h0s.11-.06.18-.06c.15.01.24-.06.31-.17.11-.03.26.04.26-.17,0-.08.1-.05.15-.05.1-.01.2-.01.3-.02.11-.09.24-.07.36-.07.15,0,.28-.03.36-.17h0c.26-.14.54-.05.81-.07.16,0,.3-.02.39-.17.05,0,.09,0,.14,0,.09-.08.21-.07.32-.07,1.1,0,2.2,0,3.31,0,.11,0,.23,0,.32.07.16,0,.31,0,.47.01.09.14.23.18.39.17.12,0,.24-.02.34.06.07,0,.14,0,.21,0q.5.02.5-.48c-.12-.19-.06-.4-.07-.6,0-.15-.03-.28-.17-.36,0-.11-.01-.22-.02-.34,0-.05.01-.12-.04-.12-.25.01-.17-.18-.19-.3-.02-.11,0-.21-.16-.2-.06,0-.07-.05-.07-.1,0-.11-.03-.15-.14-.16-.16,0-.05-.16-.1-.23-.12-.32-.12-.64,0-.96.09-.04.27.03.23-.18,0-.06.06-.06.11-.06.17,0,.33.01.5.02.04,0,.1,0,.09.05,0,.15.07.17.2.2.12.02.05.18.07.27.02.1,0,.2.15.18.04,0,.09.02.08.06-.01.14.04.2.19.2.06,0,.04.08.04.12,0,.11.02.22.02.34.04.12.13.19.22.25,0,.08,0,.15.01.23.04.05.06.1.05.15-.01.15.06.26.17.34,0,.16,0,.31.01.47.08.1.07.23.06.34,0,.16.03.3.17.39,0,.34.02.69.02,1.03,0,.11.04.16.15.15.11,0,.22.01.33.02.11,0,.23-.02.22.16,0,.09.1.05.15.07.13.04.33-.08.35.2,0,.07.14.02.22.05.07.11.16.19.31.18.06,0,.13.01.17.06h0c.07.12.16.19.31.18.06,0,.13.01.17.06,0,.15.05.25.24.23.12,0,.27-.04.27.18,0,.11.18.04.27.07.08.02.18,0,.17.13,0,.07.03.1.1.1.11,0,.16.03.16.15,0,.12.1.07.16.09.12.04.33-.06.31.2,0,.06.07.05.11.05.07,0,.13.02.12.11-.01.11.06.13.15.13.05,0,.11.01.1.07-.03.21.14.14.24.17.1.2.29.39.48.48.04.09-.04.26.18.23.08-.01.07.07.07.12,0,.08.02.12.11.12.09,0,.14.03.13.12,0,.02,0,.07,0,.07.15.04.25.13.27.3.25-.03.18.18.21.31.02.09.01.17.14.16.09,0,.1.06.1.13,0,.07.01.13.1.12.12-.01.13.06.13.15,0,.04,0,.1.04.1.28-.02.17.2.21.33.01.05-.02.14.05.14.23-.01.16.17.19.28.02.1-.02.23.16.22.1,0,.05.11.07.17.04.12-.07.31.19.33.09,0,.04.17.05.26.02.1-.02.22.15.2.08,0,.08.06.08.11,0,.12,0,.24.01.36.04.04.06.1.06.15-.01.15.06.26.17.34,0,.24.01.47.02.71.07.09.07.19.07.3,0,.61,0,1.22,0,1.83,0,.1,0,.21-.07.3,0,.16,0,.32-.01.47-.23.09-.12.34-.23.49-.02.11.05.26-.17.26-.11,0-.06.15-.06.22,0,.18-.06.26-.24.24-.05.04-.11.06-.18.06-.15-.01-.24.06-.31.18-.16,0-.32,0-.48,0-.09-.23-.34-.13-.49-.23-.1,0-.21-.02-.31-.02-.02,0-.06,0-.07,0-.08-.14-.3-.22-.32-.29-.03-.21-.17-.15-.28-.18-.1-.03-.24.02-.22-.16,0-.06-.04-.08-.1-.08-.03,0-.09,0-.09,0-.04-.15-.23-.2-.27-.29-.06-.13-.1-.19-.23-.19.05-.24-.32-.18-.29-.41,0-.06-.07-.05-.11-.06-.06,0-.13,0-.12-.08.03-.21-.14-.14-.23-.17-.1-.19-.29-.39-.48-.48-.03-.1.04-.26-.17-.24-.08,0-.08-.07-.07-.12,0-.08-.02-.12-.11-.12-.09,0-.14-.02-.13-.12,0-.09-.03-.13-.13-.13-.06,0-.11-.02-.11-.09,0-.11-.03-.15-.14-.16-.17-.02-.08-.18-.11-.27-.03-.09-.01-.19-.16-.17-.06,0-.09-.03-.09-.09,0-.1-.02-.17-.14-.16-.06,0-.09-.03-.09-.09,0-.11-.03-.17-.15-.16-.06,0-.09-.03-.09-.09.01-.13-.04-.17-.16-.17-.1,0-.05-.1-.07-.15-.05-.12.06-.34-.2-.32-.02,0-.05-.05-.05-.07.03-.2-.12-.16-.23-.18-.06-.04-.07-.11-.07-.17,0-.15-.06-.24-.18-.3h0c-.05-.11-.13-.19-.23-.25h0c-.05-.05-.07-.11-.07-.17.01-.15-.06-.24-.19-.3-.16.01-.24-.03-.24-.22,0-.1.04-.28-.18-.26-.05,0-.07-.04-.06-.08.03-.21-.12-.16-.23-.17-.02-.02-.04-.03-.04-.05,0-.33-.25-.47-.44-.67-.01-.12.03-.25-.17-.26-.11,0-.06-.15-.06-.22,0-.18-.07-.25-.24-.24-.12-.24-.35-.25-.49,0-.1,0-.21.02-.31.01-.1,0-.17,0-.17.13,0,.1-.07.09-.13.09-.13,0-.27.02-.4.02-.1,0-.19,0-.19.14,0,.08-.06.08-.12.08-.12,0-.24.01-.36.02-.05.04-.11.06-.18.06-.15-.01-.24.06-.31.17Z"/>
    <path class="cls-7" d="m63.99,17.77c.03.1-.04.26.17.24.08-.01.07.07.08.12,0,.05,0,.12.06.11.15,0,.16.18.19.18.27.08.23.3.25.5.24-.04.16.31.39.32.1,0,.04.16.06.25.02.11-.01.23.16.22.08,0,.06.07.07.13,0,.11.01.22.02.33.04.05.06.11.06.18-.01.15.06.24.18.31,0,.11.01.22.02.34,0,.03,0,.09,0,.09.42.16.13.52.22.77.1.18.06.37.06.56,0,.15.03.28.17.37,0,.01,0,.03,0,.04.08.09.07.21.07.32,0,.82,0,1.63,0,2.45,0,.11,0,.23-.07.32,0,.01,0,.03,0,.04-.13.09-.17.21-.17.37,0,.2.05.41-.06.61,0,.16,0,.31,0,.47-.13.08-.18.21-.17.36,0,.12.02.26-.06.37h0c-.14.08-.18.2-.17.36,0,.12.02.26-.06.37,0,.08,0,.15-.01.23-.11.08-.18.17-.17.31,0,.06-.01.13-.06.17-.02.11.05.26-.16.26-.09,0-.05.1-.06.15-.01.1-.02.2-.02.3-.11.07-.19.16-.18.31,0,.06-.01.13-.06.17h0c-.11.07-.19.16-.18.31,0,.06-.01.13-.07.17h0c-.11.08-.19.17-.17.31,0,.06-.01.13-.06.17-.18-.01-.25.07-.23.25.01.1.02.21,0,.31,0,.12.05.13.15.15.12.02.33-.06.31.2,0,.06.07.06.11.05.09,0,.13.03.12.13,0,.06,0,.12.09.11.13-.01.17.04.16.16,0,.08.07.08.12.07.08,0,.12.03.12.11-.01.11.05.14.14.13.04,0,.09,0,.09.06-.01.15.05.2.19.19.06,0,.05.07.05.12,0,.06,0,.13.08.12.21-.03.14.14.17.23.13.19.3.34.47.49.03.1-.04.26.17.24.06,0,.07.05.07.1,0,.05,0,.13.04.12.28-.01.17.21.21.34.02.07,0,.15.11.14.12,0,.12.07.12.16,0,.13,0,.26,0,.38,0,.11.01.22-.15.2-.02,0-.07.03-.07.04.02.28-.2.18-.33.2-.14.02-.29,0-.43,0-.11,0-.23.01-.21-.17,0-.04-.02-.09-.07-.08-.22.03-.16-.15-.18-.26-.02-.1.02-.23-.17-.21-.08,0-.08-.06-.08-.12,0-.08-.02-.13-.11-.12-.09,0-.13-.03-.12-.13,0-.09-.03-.14-.12-.13-.08,0-.12-.03-.11-.11,0-.05,0-.12-.05-.12-.26.02-.18-.19-.21-.31-.02-.08,0-.17-.12-.15-.09,0-.13-.04-.12-.13,0-.06,0-.12-.09-.11-.11,0-.16-.04-.15-.15,0-.06-.03-.09-.09-.08-.11.01-.15-.04-.16-.15-.01-.17-.18-.08-.27-.12-.08-.04-.2,0-.18-.15,0-.05-.03-.1-.08-.09-.11,0-.15-.03-.16-.15,0-.14-.13-.08-.21-.08.02.22-.3.18-.29.39,0,.06-.03.09-.09.09-.12-.01-.16.04-.15.15,0,.07-.04.1-.1.09-.11-.01-.14.05-.13.14,0,.07-.03.1-.1.1-.03,0-.06,0-.1,0,.04.22-.26.2-.28.39,0,.06-.03.09-.09.09-.13-.02-.17.05-.16.17,0,.03-.02.07-.05.07-.15-.01-.19.06-.19.2,0,.06-.07.05-.12.05-.08,0-.12.03-.11.11,0,.07-.01.13-.1.12-.11-.01-.16.03-.15.15,0,.06-.03.09-.09.08-.11,0-.15.03-.16.15,0,.16-.16.05-.23.1-.1.05-.18.14-.24.23h0c-.04.06-.11.07-.17.07-.15-.01-.24.06-.3.18.02.18-.08.25-.25.23-.05.05-.11.07-.17.07-.15-.01-.24.06-.3.18h0s-.04.04-.06.04c-.33-.01-.47.25-.67.43-.08,0-.15,0-.23.01-.05.05-.11.07-.18.06-.15-.01-.24.06-.31.18h0c-.11.09-.24.07-.36.07-.15,0-.28.03-.36.17h0c-.18.12-.38.06-.57.07-.16,0-.3.02-.39.17-.08,0-.16,0-.23,0-.09.07-.19.07-.3.07-.69,0-1.37,0-2.06,0-.1,0-.21,0-.3-.07-.16,0-.31,0-.47-.01-.09-.23-.34-.12-.49-.23-.08,0-.15,0-.23-.01-.07-.11-.16-.19-.31-.18-.06,0-.13-.02-.18-.06h0c-.07-.12-.16-.19-.31-.18-.06,0-.13-.01-.17-.06h0c-.07-.12-.16-.19-.3-.18-.06,0-.13-.01-.17-.07h0c-.14-.38-.42-.72-.32-1.17.02-.09,0-.19.07-.27h0c.12-.07.19-.16.18-.31,0-.06.01-.13.06-.17.03-.1-.03-.26.18-.24.07,0,.07-.07.07-.13,0-.06.01-.12.09-.11.11,0,.16-.04.15-.16,0-.06.03-.09.09-.09.11,0,.17-.02.16-.15,0-.08.04-.09.11-.09.05,0,.13,0,.13-.07-.02-.2.12-.17.23-.18.17,0,.26-.06.25-.24.05-.05.11-.07.17-.07.15.01.24-.06.3-.18-.01-.18.08-.25.25-.24.05-.05.11-.07.17-.06.15.01.24-.06.3-.19h0c.11-.04.19-.13.25-.23h0s.11-.07.17-.06c.15.01.24-.06.3-.18.17.01.26-.05.25-.23.05-.05.11-.07.17-.06.15.01.24-.06.31-.18h0s.11-.07.17-.06c.15.01.24-.06.3-.18.09-.03.26.04.24-.17,0-.08.08-.05.13-.07.14-.04.36.07.36-.21,0-.01.07-.02.1-.03.04,0,.11-.01.11-.02.05-.33.32-.18.49-.23.02-.01.04-.03.06-.03.33,0,.48-.24.67-.44h0s.11-.07.17-.06c.15.01.24-.06.31-.18.11-.02.27.04.26-.18,0-.06.07-.05.12-.05.13-.01.27-.03.4-.03.09,0,.17,0,.17-.13,0-.13.11-.07.18-.09.12-.04.31.07.33-.19,0-.09.17-.03.26-.05.09-.02.21.02.21-.15,0-.13.12-.06.19-.08.11-.04.3.06.31-.19,0-.08.12-.05.19-.05.23.02.31-.09.3-.3,0-.22-.01-.45-.02-.67-.07-.09-.07-.19-.07-.29,0-.26,0-.52,0-.79,0-.15-.03-.28-.17-.37h0c-.08-.08-.07-.19-.07-.29,0-.3,0-.59,0-.89,0-.24-.01-.48,0-.72,0-.18-.03-.33-.2-.42-.08-.17-.05-.34-.05-.52,0-.34,0-.68,0-1.02-.01-1.28-.01-2.56,0-3.85-.01-.32,0-.63,0-.95,0-.1,0-.19.08-.27h0c.13-.08.18-.21.17-.36,0-.12-.02-.26.06-.37.02-.11-.05-.26.17-.26.11,0,.03-.15.07-.22.17-.15.33-.31.48-.48h0c.32-.12.64-.12.97,0,.1,0,.21.01.31.02.03,0,.09,0,.09,0,.04.17.29.21.3.28.04.24.21.15.32.19.08.03.18,0,.17.14,0,.09.06.1.13.1.05,0,.13,0,.12.08-.02.21.14.14.24.17.1.19.29.39.48.48Z"/>
    <path class="cls-7" d="m12.81,53.2c0,.24,0,.47.01.71.07.1.07.21.07.32,0,.99,0,1.99,0,2.98,0,.11,0,.23-.07.32,0,.08,0,.16,0,.23-.11.07-.19.16-.18.31,0,.06-.01.13-.07.17-.18-.02-.26.06-.24.24-.03.03-.06.06-.1.06-.37.02-.74.08-1.1-.04-.08,0-.15,0-.23-.01-.07-.11-.16-.19-.31-.18-.06,0-.13-.02-.18-.06-.11-.01-.25.04-.26-.18,0-.11-.18-.05-.27-.07-.1-.02-.19,0-.18-.15,0-.04-.02-.08-.07-.08-.14.01-.18-.04-.21-.18-.02-.11-.16-.05-.25-.07-.1-.03-.21,0-.19-.16,0-.06-.04-.09-.09-.08-.11,0-.17-.03-.15-.15,0-.06-.03-.09-.09-.09-.11,0-.17-.03-.16-.15,0-.04-.01-.09-.06-.08-.15.02-.2-.05-.19-.19,0-.03-.03-.07-.06-.06-.2.03-.15-.13-.18-.23-.05-.11-.13-.19-.23-.24h0c-.05-.11-.14-.18-.23-.25-.02-.11.04-.25-.18-.26-.11,0-.03-.15-.07-.22-.05-.05-.07-.11-.06-.17.01-.15-.06-.24-.18-.3-.03-.1.04-.24-.17-.25-.12,0-.05-.18-.07-.27-.03-.1,0-.2-.15-.21-.14-.01-.04-.16-.08-.24-.05-.05-.07-.11-.06-.17.01-.15-.07-.24-.17-.32,0-.08,0-.15-.01-.23-.09-.11-.07-.24-.06-.37,0-.16-.03-.28-.17-.36h0c-.14-.26-.05-.54-.07-.82,0-.16-.03-.3-.17-.4,0-.09,0-.19,0-.28-.06-.07-.07-.16-.07-.25,0-.79,0-1.58,0-2.37,0-.07,0-.14.04-.21.18-.1.22-.27.21-.46-.01-.18,0-.36,0-.54-.01-.22,0-.43,0-.65,0-.09,0-.18.07-.25,0-.01,0-.03,0-.04.14-.09.18-.23.17-.39,0-.12-.02-.24.06-.34h0c.14-.08.18-.2.17-.36,0-.12-.03-.26.07-.36h0c.23-.1.13-.34.23-.5,0-.1,0-.19.01-.29q.01-.38-.36-.44s-.07,0-.07,0c-.16-.41-.51-.15-.76-.23-.09-.18-.29-.15-.43-.24-.06-.13-.16-.16-.29-.16-.24,0-.48-.03-.72,0-.33.05-.56-.1-.77-.32-.07-.24-.1-.48.03-.71h0c.18-.13.38-.07.57-.07.16,0,.3-.02.39-.17.16,0,.31,0,.47,0,.09.14.23.17.39.17.19,0,.4-.05.58.06.16,0,.31,0,.47,0,.09.14.23.18.39.17.11,0,.24-.03.34.07h0c.13.22.35.17.55.16.09,0,.1-.08.11-.16,0-.09,0-.18.07-.24h0c.11-.07.19-.16.18-.31,0-.06.01-.13.07-.17.16.01.25-.04.23-.23-.02-.16.02-.3.24-.27.13-.06.2-.15.19-.3,0-.06.01-.13.06-.17.03-.1-.04-.26.17-.24.08,0,.07-.07.07-.12,0-.06,0-.12.08-.11.12,0,.16-.04.15-.15,0-.05.02-.1.08-.09.13.01.17-.05.16-.17,0-.08.06-.08.12-.08.06,0,.12,0,.11-.09-.01-.13.05-.15.16-.17.14-.02.06-.17.1-.26.03-.09,0-.2.15-.18.04,0,.09-.02.08-.06-.03-.2.11-.18.24-.2.11-.01.25.02.23-.18,0-.08.08-.07.13-.07.06,0,.12-.01.11-.09,0-.12.04-.16.15-.15.06,0,.09-.03.09-.08-.01-.12.05-.15.16-.15.03,0,.08-.02.08-.03,0-.28.22-.21.35-.22.18-.02.09-.16.14-.23.05-.05.11-.07.17-.07.15.01.24-.06.3-.18.1-.03.26.04.24-.17,0-.06.05-.07.1-.07.11,0,.15-.03.16-.14,0-.16.16-.05.23-.1.05-.05.11-.07.17-.06.15.01.24-.07.31-.18.11,0,.22,0,.33-.01.05,0,.12.01.12-.04,0-.26.19-.17.31-.19.09-.01.19-.01.29-.02.03,0,.09,0,.09-.01.07-.34.35-.16.53-.21.11-.09.24-.07.36-.06.16,0,.28-.04.37-.17.73,0,1.45,0,2.18,0,.11,0,.23-.03.23.15,0,.08.08.06.13.06.19,0,.38.01.57.02.09.23.34.12.49.23.11.02.28-.05.25.17,0,.07.06.06.11.06.09,0,.14.03.13.12,0,.05,0,.11.07.1.22-.02.17.13.17.25.11.33.11.66,0,.99,0,.11-.01.22-.02.34,0,.05.01.12-.05.12-.15,0-.19.07-.18.21,0,.02-.02.05-.04.05-.27-.02-.19.19-.21.33-.01.11-.03.17-.15.16-.04,0-.09.01-.08.06.01.15-.05.2-.19.2-.06,0-.05.07-.05.12,0,.08-.04.12-.12.11-.09,0-.13.03-.12.13,0,.02,0,.05,0,.07-.23-.03-.18.29-.38.29-.06,0-.09.03-.09.09,0,.11-.04.15-.15.16-.16,0-.05.16-.1.22-.28.03-.44.2-.49.48-.1.02-.26-.04-.24.16,0,.06-.04.08-.1.08-.05,0-.13,0-.13.03,0,.28-.23.19-.37.23-.04,0-.09,0-.09.05.01.15-.06.2-.2.19-.05,0-.07.04-.06.08.01.12-.06.15-.16.14-.04,0-.09.01-.09.06.03.21-.14.19-.25.19-.18,0-.23.08-.23.24-.05.06-.13.07-.2.07-.14,0-.22.07-.27.19h0c-.11.04-.19.13-.25.24-.09.03-.26-.04-.24.17,0,.06-.05.08-.1.07-.11,0-.15.03-.16.15-.01.15-.15.08-.23.09-.17.01-.26.06-.25.24-.05.05-.11.07-.17.07-.15-.01-.24.06-.3.18-.1.03-.26-.03-.23.18,0,.06-.06.07-.1.07-.05,0-.13,0-.13.04.01.26-.19.18-.31.21-.1.02-.19.01-.18.15,0,.06-.04.08-.1.08-.11,0-.17.02-.16.14,0,.11-.1.07-.16.09-.12.04-.33-.07-.32.2,0,.05-.07.04-.12.05-.05,0-.12,0-.11.05.01.25-.19.16-.3.19-.1.02-.18,0-.18.15,0,.15-.16.05-.23.09-.26.18-.26.51,0,.72,0,.08,0,.15,0,.23.08.11.07.24.06.37,0,.16.03.28.17.36h0c.09.11.07.24.07.36,0,.16.04.28.17.36,0,.08,0,.15.01.23.08.11.07.24.06.37,0,.16.03.28.17.36v.23c.09.11.08.24.07.37,0,.16.04.28.17.37,0,.08,0,.15.01.23.08.11.07.24.06.37,0,.16.04.28.17.36,0,.08,0,.16,0,.23.12.19.06.4.06.6,0,.15.04.28.17.37v.38c.1.14.07.29.07.44,0,.16.02.3.17.39Z"/>
    <path class="cls-2" d="m34.19,49.57c0-.08,0-.15.01-.23.32-.14.63-.13.95,0-.02.18.07.26.25.24.17-.02.24.06.23.23-.01.18,0,.35,0,.53,0,.11,0,.21-.16.2-.02,0-.07.03-.07.05.02.24-.17.19-.29.19-.16,0-.32,0-.48,0-.11,0-.21,0-.2-.16,0-.04-.03-.09-.07-.08-.2.03-.15-.13-.18-.24-.11-.24-.11-.49,0-.73Z"/>
    <path class="cls-6" d="m33.48,22.91c.1-.03.26.02.23-.18,0-.07.08-.06.13-.06.15,0,.3,0,.46,0,.09,0,.16.02.15.13,0,.04,0,.1.05.09.25-.01.17.18.18.3.01.15-.02.31,0,.46.02.19-.08.23-.24.23-.32.11-.64.13-.95-.01l-.02-.23c-.11-.24-.11-.49,0-.73Z"/>
    <path class="cls-8" d="m68.08,39.22c-.1.03-.25-.02-.23.18,0,.07-.08.06-.13.06-.15,0-.3,0-.45,0-.09,0-.16-.02-.15-.13,0-.03-.01-.08-.03-.08-.39-.13-.11-.46-.2-.68-.01-.04.02-.09.06-.08.21.03.14-.14.17-.24.26-.12.63-.1.76.04.31.32.36.59.2.93Z"/>
    <path class="cls-5" d="m.32,41.63c.16,0,.33.01.49,0,.18-.01.25.06.24.24.16.38.07.76-.26.98-.14.09-.3.08-.46.01-.08-.08-.13-.17-.22-.24-.16-.12-.14-.66.01-.79.07-.06.14-.13.2-.2Z"/>
  </g>
</svg>