<svg width="48" height="48" viewBox="0 0 48 48" fill="none" xmlns="http://www.w3.org/2000/svg">
<g id="fluent:document-20-regular">
<path id="Vector" d="M14.3996 4.80005C13.1266 4.80005 11.9057 5.30576 11.0055 6.20594C10.1053 7.10611 9.59961 8.32701 9.59961 9.60005V38.4001C9.59961 39.6731 10.1053 40.894 11.0055 41.7942C11.9057 42.6943 13.1266 43.2001 14.3996 43.2001H33.5996C34.8726 43.2001 36.0935 42.6943 36.9937 41.7942C37.8939 40.894 38.3996 39.6731 38.3996 38.4001V17.7936C38.3988 16.8392 38.0189 15.9241 37.3436 15.2496L27.95 5.85365C27.2751 5.1792 26.3601 4.80025 25.406 4.80005H14.3996ZM11.9996 9.60005C11.9996 8.96353 12.2525 8.35308 12.7026 7.90299C13.1526 7.45291 13.7631 7.20005 14.3996 7.20005H23.9996V15.6C23.9996 16.5548 24.3789 17.4705 25.054 18.1456C25.7292 18.8208 26.6448 19.2 27.5996 19.2H35.9996V38.4001C35.9996 39.0366 35.7468 39.647 35.2967 40.0971C34.8466 40.5472 34.2361 40.8 33.5996 40.8H14.3996C13.7631 40.8 13.1526 40.5472 12.7026 40.0971C12.2525 39.647 11.9996 39.0366 11.9996 38.4001V9.60005ZM35.5028 16.8H27.5996C27.2813 16.8 26.9761 16.6736 26.7511 16.4486C26.526 16.2235 26.3996 15.9183 26.3996 15.6V7.69685L35.5028 16.8Z" fill="black"/>
</g>
</svg>
