<svg width="91" height="36" viewBox="0 0 91 36" fill="none" xmlns="http://www.w3.org/2000/svg">
<g id="GooglePay-logo.svg" clip-path="url(#clip0_498_242)">
<path id="Vector" d="M43.0395 17.5475V28.0824H39.748V2.07702H48.4776C50.5834 2.03554 52.6278 2.84433 54.1201 4.33744C57.105 7.15779 57.289 11.9068 54.4882 14.9552C54.3654 15.0797 54.2428 15.2041 54.1201 15.3285C52.5868 16.8009 50.706 17.5475 48.4776 17.5475H43.0395ZM43.0395 5.27065V14.3538H48.5594C49.7861 14.3953 50.9718 13.8976 51.81 13.0059C53.5272 11.2017 53.4865 8.29839 51.7077 6.55639C50.8695 5.72688 49.7451 5.27065 48.5594 5.27065H43.0395Z" fill="white"/>
<path id="Vector_2" d="M64.0755 9.70844C66.5083 9.70844 68.43 10.372 69.8408 11.6785C71.2514 12.985 71.9464 14.81 71.9464 17.1119V28.0822H68.7981V25.6144H68.6549C67.2852 27.6467 65.4861 28.6628 63.2168 28.6628C61.295 28.6628 59.6595 28.0822 58.3717 26.9209C57.1041 25.8425 56.3885 24.2457 56.4294 22.5659C56.4294 20.7202 57.1246 19.2686 58.4943 18.1694C59.864 17.0704 61.7039 16.5312 63.9937 16.5312C65.9564 16.5312 67.551 16.9045 68.8186 17.6096V16.8423C68.8186 15.7017 68.3278 14.6233 67.4692 13.8767C66.59 13.0887 65.4657 12.6532 64.3004 12.6532C62.4605 12.6532 61.0089 13.4413 59.9458 15.0173L57.0427 13.1717C58.5966 10.8698 60.9475 9.70844 64.0755 9.70844ZM59.8232 22.6282C59.8232 23.4991 60.2321 24.3078 60.9066 24.8056C61.6427 25.3862 62.5421 25.6973 63.4622 25.6766C64.8524 25.6766 66.1811 25.1166 67.1626 24.1214C68.246 23.0844 68.7981 21.8608 68.7981 20.4506C67.7759 19.6212 66.3448 19.2064 64.5049 19.2272C63.1759 19.2272 62.0516 19.5589 61.152 20.2018C60.2728 20.8447 59.8232 21.6535 59.8232 22.6282Z" fill="white"/>
<path id="Vector_3" fill-rule="evenodd" clip-rule="evenodd" d="M90.0185 10.2886L79.0197 35.8998H75.6259L79.7147 26.9411L72.498 10.2886H76.0757L81.289 23.0632H81.3502L86.4407 10.2886H90.0185Z" fill="white"/>
<path id="Vector_4" fill-rule="evenodd" clip-rule="evenodd" d="M29.7284 15.2664C29.7284 14.2503 29.6465 13.2341 29.483 12.2387H15.6016V17.9832H23.5542C23.2272 19.8287 22.1641 21.4877 20.6104 22.5246V26.2575H25.3533C28.1338 23.6653 29.7284 19.8287 29.7284 15.2664Z" fill="#4285F4"/>
<path id="Vector_5" fill-rule="evenodd" clip-rule="evenodd" d="M15.6025 29.8652C19.5686 29.8652 22.9215 28.538 25.3543 26.2569L20.6113 22.524C19.2825 23.4365 17.5856 23.9549 15.6025 23.9549C11.759 23.9549 8.50845 21.3212 7.34314 17.7958H2.45703V21.6529C4.95119 26.6923 10.0418 29.8652 15.6025 29.8652Z" fill="#34A853"/>
<path id="Vector_6" fill-rule="evenodd" clip-rule="evenodd" d="M7.34237 17.7965C6.72905 15.9508 6.72905 13.9393 7.34237 12.0728V8.23633H2.45625C0.35052 12.4461 0.35052 17.4232 2.45625 21.6329L7.34237 17.7965Z" fill="#FBBC04"/>
<path id="Vector_7" fill-rule="evenodd" clip-rule="evenodd" d="M15.6025 5.91328C17.7083 5.8718 19.7322 6.68057 21.2451 8.15297L25.4565 3.88096C22.7783 1.35094 19.2621 -0.038498 15.6025 0.00297773C10.0418 0.00297773 4.95119 3.19662 2.45703 8.23591L7.34314 12.0932C8.50845 8.54699 11.759 5.91328 15.6025 5.91328Z" fill="#EA4335"/>
</g>
<defs>
<clipPath id="clip0_498_242">
<rect width="89.7454" height="35.8982" fill="white" transform="translate(0.876953 0.0020752)"/>
</clipPath>
</defs>
</svg>
