<svg width="114" height="37" viewBox="0 0 114 37" fill="none" xmlns="http://www.w3.org/2000/svg">
<g id="image" clip-path="url(#clip0_498_255)">
<path id="Vector" d="M14.2707 3.29895H5.52049C4.95958 3.29895 4.39867 3.74768 4.28649 4.30859L0.808852 26.7449C0.69667 27.1937 1.03322 27.5302 1.48194 27.5302H5.63267C6.19358 27.5302 6.75449 27.0815 6.86667 26.5206L7.76412 20.4628C7.8763 19.9019 8.32503 19.4531 8.99812 19.4531H11.8027C17.5239 19.4531 20.8894 16.6486 21.7868 11.1517C22.1234 8.79586 21.7868 6.88877 20.665 5.54259C19.431 4.08422 17.1874 3.29895 14.2707 3.29895ZM15.2803 11.4882C14.8316 14.6293 12.3636 14.6293 10.1199 14.6293H8.77376L9.67121 8.79586C9.67121 8.45931 10.0078 8.23495 10.3443 8.23495H10.9052C12.4758 8.23495 13.9341 8.23495 14.7194 9.1324C15.2803 9.58113 15.5047 10.3664 15.2803 11.4882Z" fill="#003087"/>
<path id="Vector_2" d="M40.2963 11.376H36.1456C35.809 11.376 35.4725 11.6004 35.4725 11.9369L35.2481 13.0588L34.9116 12.61C34.0141 11.2639 31.9949 10.8151 29.9756 10.8151C25.3761 10.8151 21.4498 14.2928 20.6645 19.2288C20.2158 21.6968 20.7767 24.0526 22.235 25.6231C23.469 27.0815 25.3761 27.7546 27.5076 27.7546C31.2096 27.7546 33.341 25.3988 33.341 25.3988L33.1167 26.5206C33.0045 26.9693 33.341 27.418 33.7898 27.418H37.6039C38.1649 27.418 38.7258 26.9693 38.8379 26.4084L41.0816 12.0491C41.1938 11.8248 40.745 11.376 40.2963 11.376ZM34.575 19.4531C34.1263 21.8089 32.3314 23.4917 29.8634 23.4917C28.6294 23.4917 27.732 23.1551 27.0589 22.3698C26.3858 21.5846 26.1614 20.5749 26.3858 19.4531C26.7223 17.0973 28.7416 15.4146 31.0974 15.4146C32.3314 15.4146 33.2289 15.8633 33.9019 16.5364C34.4629 17.3217 34.6872 18.3313 34.575 19.4531Z" fill="#003087"/>
<path id="Vector_3" d="M62.6195 11.376H58.4687C58.02 11.376 57.6835 11.6004 57.4591 11.9369L51.6257 20.4628L49.1577 12.2735C49.0455 11.7126 48.4846 11.376 48.0358 11.376H43.8851C43.4364 11.376 42.9877 11.8248 43.212 12.3857L47.8115 25.9597L43.4364 32.0175C43.0998 32.4662 43.4364 33.1393 43.9973 33.1393H48.148C48.5967 33.1393 48.9333 32.9149 49.1577 32.5784L63.1804 12.3857C63.5169 12.0491 63.1804 11.376 62.6195 11.376Z" fill="#003087"/>
<path id="Vector_4" d="M76.5324 3.29895H67.7822C67.2213 3.29895 66.6604 3.74768 66.5482 4.30859L63.0706 26.6328C62.9584 27.0815 63.2949 27.418 63.7437 27.418H68.2309C68.6797 27.418 69.0162 27.0815 69.0162 26.7449L70.0258 20.3506C70.138 19.7897 70.5867 19.3409 71.2598 19.3409H74.0644C79.7857 19.3409 83.1511 16.5364 84.0486 11.0395C84.3851 8.68367 84.0486 6.77658 82.9267 5.4304C81.5806 4.08422 79.4491 3.29895 76.5324 3.29895ZM77.542 11.4882C77.0933 14.6293 74.6253 14.6293 72.3817 14.6293H71.0355L71.9329 8.79586C71.9329 8.45931 72.2695 8.23495 72.606 8.23495H73.1669C74.7375 8.23495 76.1958 8.23495 76.9811 9.1324C77.542 9.58113 77.6542 10.3664 77.542 11.4882Z" fill="#009CDE"/>
<path id="Vector_5" d="M102.556 11.376H98.4054C98.0688 11.376 97.7323 11.6004 97.7323 11.9369L97.5079 13.0588L97.1714 12.61C96.2739 11.2639 94.2546 10.8151 92.2354 10.8151C87.6359 10.8151 83.7095 14.2928 82.9243 19.2288C82.4755 21.6968 83.0365 24.0526 84.4948 25.6231C85.7288 27.0815 87.6359 27.7546 89.7674 27.7546C93.4694 27.7546 95.6008 25.3988 95.6008 25.3988L95.3764 26.5206C95.2643 26.9693 95.6008 27.418 96.0495 27.418H99.8637C100.425 27.418 100.986 26.9693 101.098 26.4084L103.341 12.0491C103.341 11.8248 103.005 11.376 102.556 11.376ZM96.7226 19.4531C96.2739 21.8089 94.479 23.4917 92.011 23.4917C90.777 23.4917 89.8795 23.1551 89.2065 22.3698C88.5334 21.5846 88.309 20.5749 88.5334 19.4531C88.8699 17.0973 90.8892 15.4146 93.245 15.4146C94.479 15.4146 95.3764 15.8633 96.0495 16.5364C96.7226 17.3217 96.947 18.3313 96.7226 19.4531Z" fill="#009CDE"/>
<path id="Vector_6" d="M107.492 3.85986L103.903 26.6328C103.79 27.0815 104.127 27.418 104.576 27.418H108.166C108.726 27.418 109.287 26.9693 109.4 26.4084L112.989 4.08422C113.102 3.6355 112.765 3.29895 112.316 3.29895H108.278C107.829 3.29895 107.605 3.52331 107.492 3.85986Z" fill="#009CDE"/>
</g>
<defs>
<clipPath id="clip0_498_255">
<rect width="113.304" height="35.8982" fill="white" transform="translate(0.541016 0.157837)"/>
</clipPath>
</defs>
</svg>
