<svg width="114" height="37" viewBox="0 0 114 37" fill="none" xmlns="http://www.w3.org/2000/svg">
<g id="image" clip-path="url(#clip0_498_266)">
<g id="Page-1">
<g id="Blue">
<g id="Logo">
<path id="Vector" fill-rule="evenodd" clip-rule="evenodd" d="M19.2383 7.24628C20.0018 8.54657 20.346 9.88588 20.346 11.5777C20.346 16.9737 15.8787 23.9836 12.253 28.9058H3.97168L0.650391 8.42772L7.90162 7.71784L9.65763 22.2893C11.2984 19.5331 13.3231 15.2017 13.3231 12.2486C13.3231 10.6321 13.0546 9.53115 12.6349 8.6246L19.2383 7.24628ZM28.4833 20.1627C28.4833 22.5667 29.7796 23.5098 31.4982 23.5098C33.3696 23.5098 35.1615 23.0382 37.4905 21.8178L36.6133 27.9601C34.9724 28.7868 32.415 29.3384 29.9327 29.3384C23.6361 29.3384 21.3826 25.4009 21.3826 20.4785C21.3826 14.0985 25.0483 7.3241 32.6057 7.3241C36.7666 7.3241 39.0932 9.72782 39.0932 13.0749C39.0936 18.4707 32.3774 20.1237 28.4833 20.1627ZM28.6362 16.2637C29.9705 16.2637 33.3298 15.6342 33.3298 13.6655C33.3298 12.7201 32.6816 12.2486 31.9177 12.2486C30.5812 12.2486 28.8273 13.9012 28.6362 16.2637ZM60.0193 12.0517C60.0193 12.8392 59.9035 13.9814 59.7882 14.7279L57.6123 28.9056H50.5516L52.5364 15.9091C52.574 15.5566 52.6897 14.8469 52.6897 14.4532C52.6897 13.5078 52.1169 13.272 51.4282 13.272C50.5136 13.272 49.5968 13.7047 48.9861 14.0206L46.735 28.9058H39.6345L42.8783 7.67924H49.0238L49.1016 9.37349C50.5514 8.38912 52.4605 7.3245 55.1692 7.3245C58.7579 7.3241 60.0193 9.21502 60.0193 12.0517ZM80.9805 9.64777C83.0027 8.15283 84.9122 7.3241 87.545 7.3241C91.1705 7.3241 92.4316 9.21502 92.4316 12.0517C92.4316 12.8392 92.3161 13.9814 92.2009 14.7279L90.0275 28.9056H82.9649L84.9875 15.6344C85.0247 15.2797 85.1029 14.8469 85.1029 14.5725C85.1029 13.508 84.5299 13.272 83.8415 13.272C82.9645 13.272 82.0878 13.6657 81.437 14.0206L79.1862 28.9058H72.1253L74.1479 15.6346C74.1852 15.2799 74.2611 14.8471 74.2611 14.5727C74.2611 13.5082 73.6879 13.2722 73.0018 13.2722C72.0852 13.2722 71.1703 13.7049 70.5597 14.0208L68.3067 28.906H61.2086L64.4521 7.67944H70.5224L70.7132 9.45151C72.1253 8.38952 74.0329 7.32491 76.59 7.32491C78.8042 7.3241 80.2538 8.30867 80.9805 9.64777ZM94.2705 20.2816C94.2705 13.5877 97.7049 7.3241 105.607 7.3241C111.561 7.3241 113.737 10.9481 113.737 15.9502C113.737 22.5665 110.34 29.4182 102.248 29.4182C96.2551 29.4182 94.2705 25.3615 94.2705 20.2816ZM106.484 15.8313C106.484 14.0985 106.063 12.917 104.805 12.917C102.018 12.917 101.446 17.9967 101.446 20.5953C101.446 22.5667 101.981 23.7867 103.239 23.7867C105.873 23.7867 106.484 18.4297 106.484 15.8313Z" fill="white"/>
</g>
</g>
</g>
</g>
<defs>
<clipPath id="clip0_498_266">
<rect width="113.304" height="35.8982" fill="white" transform="translate(0.541016 0.313416)"/>
</clipPath>
</defs>
</svg>
